<?xml version="1.0" standalone="no"?>
<!DOCTYPE svg PUBLIC "-//W3C//DTD SVG 20010904//EN"
 "http://www.w3.org/TR/2001/REC-SVG-20010904/DTD/svg10.dtd">
<svg version="1.0" xmlns="http://www.w3.org/2000/svg"
 width="514.000000pt" height="514.000000pt" viewBox="0 0 514.000000 514.000000"
 preserveAspectRatio="xMidYMid meet">
<metadata>
Created by potrace 1.14, written by Peter Selinger 2001-2017
</metadata>
<g transform="translate(0.000000,514.000000) scale(0.100000,-0.100000)"
fill="#000000" stroke="none">
<path d="M2467 5134 c-1 -1 -40 -4 -87 -8 -89 -6 -234 -23 -260 -30 -8 -3 -31
-7 -50 -10 -19 -3 -59 -12 -88 -20 -29 -8 -56 -15 -60 -15 -24 -4 -97 -26
-162 -48 -392 -135 -707 -330 -996 -618 -246 -245 -401 -470 -547 -795 -49
-107 -132 -364 -152 -465 -43 -223 -57 -356 -58 -534 -1 -104 10 -306 18 -346
2 -11 6 -38 9 -60 6 -45 9 -58 32 -165 176 -821 769 -1520 1552 -1831 206 -82
421 -137 640 -164 23 -3 61 -8 85 -11 56 -8 423 -8 435 0 6 4 44 9 84 11 89 6
107 9 233 35 496 102 956 356 1310 722 228 235 375 453 518 768 86 188 172
505 192 708 4 35 9 73 11 85 10 46 5 452 -5 452 -1 0 -3 32 -6 70 -2 39 -7 84
-10 100 -3 17 -10 55 -16 85 -17 93 -20 104 -30 145 -37 141 -100 320 -157
445 -64 140 -206 377 -287 478 -148 187 -343 380 -507 503 -65 49 -121 89
-123 89 -2 0 -36 21 -76 46 -155 101 -444 227 -659 288 -126 36 -316 69 -475
82 -62 5 -304 11 -308 8z"/>
</g>
</svg>
