<?xml version="1.0" encoding="utf-8"?>
<!-- Generator: Adobe Illustrator 23.0.2, SVG Export Plug-In . SVG Version: 6.00 Build 0)  -->
<svg version="1.1" id="Layer_1" xmlns="http://www.w3.org/2000/svg" xmlns:xlink="http://www.w3.org/1999/xlink" x="0px" y="0px"
	 viewBox="0 0 734.46 489.32" style="enable-background:new 0 0 734.46 489.32;" xml:space="preserve">
<style type="text/css">
	.st0{fill:#222222;}
	.st1{fill:#FFFFFF;}
	.st2{fill:#E8E8E8;}
	.st3{fill:#D0D0D0;}
	.st4{fill:#A1A1A1;}
</style>
<path class="st0" d="M429.48,174.52l0.7,0.94c0.34,0.43,0.64,0.89,0.91,1.37c0.44,1.12,0.78,2.27,1,3.45c0.25,1.2,1,2.22,2.07,2.82
	c0.83,0.33,1.76,0.29,2.55-0.11c0.4-0.2,0.74-0.48,1-0.84c0.71-1,0.48-2.31,0.31-3.5c-0.15-1.03-0.24-2.06-0.26-3.1
	c0-1.16,0-2.33-0.08-3.49c-0.06-1.17-0.4-2.3-1-3.3"/>
<path class="st0" d="M420.29,252.85c2.19,2.12,3,5.37,2.77,8.42c-0.35,3.03-1.04,6.01-2.08,8.88c-4.83,15.93-6.09,32.68-7.31,49.28
	c-0.77,10.38-1.49,21.12,2,30.91c0.29,1.04,0.86,1.98,1.66,2.71c0.88,0.57,1.9,0.89,2.95,0.93c3.48,0.42,6.99,0.61,10.49,0.54
	c0.55,0.02,1.09-0.06,1.61-0.23c1.74-0.7,2-3,1.92-4.9c-0.46-19.63-0.06-39.25,1.21-58.86c0.38-6.93,1.11-13.83,2.21-20.68
	c0.54-2.41,0.79-4.87,0.74-7.34c-0.45-6.5-5.32-11.71-9.91-16.33"/>
<path class="st0" d="M464.17,387.18c-0.23-4.91,2.32-9.46,3.55-14.22c0.84-3.79,1.24-7.67,1.19-11.55
	c0.25-12.62-0.14-25.25-0.53-37.87l-1.62-52.27c-0.14-4.46,5.15-6.57,9.61-6.6c0.94-0.06,1.87,0.11,2.73,0.48
	c0.98,0.59,1.78,1.43,2.31,2.44c4.63,7.47,5.45,16.61,6.16,25.37c1.85,23.13,3.71,46.31,3.09,69.51
	c-0.14,5.15-0.43,10.44-2.56,15.13c-4.18,9.19-14.54,14.3-19,23.34"/>
<path class="st0" d="M546.46,221.04c1.24,2.03,2.03,4.3,2.33,6.66c0.01,1.53-0.18,3.05-0.54,4.53c-1.01,5.25-1.51,10.58-1.48,15.92
	c0,2.51,0.13,5.09-0.74,7.45c-1.15,3.13-3.93,5.56-4.58,8.82c-0.32,1.58-0.1,3.22-0.27,4.83c-0.39,3.57-2.72,6.86-2.39,10.44
	c0.22,2.36,1.59,4.55,1.48,6.92c-0.11,1.16-0.4,2.29-0.84,3.37c-2.85,8.12-4.78,16.54-5.75,25.09c-0.35,3.14-0.59,6.34-1.73,9.28
	c-0.29,0.92-0.84,1.74-1.57,2.36c-1.15,0.67-2.49,0.93-3.8,0.74c-3.07-0.15-6.12-0.57-9.11-1.26c-1.56-0.36-3.26-0.9-4.08-2.27
	c-0.49-0.98-0.69-2.08-0.59-3.17c0.13-3.02,0.46-6.03,1-9l1.73-11c1.22-7.78,2.55-15.84,6.94-22.38c1.16-1.5,2.16-3.12,3-4.82
	c0.84-1.74,0.75-3.79-0.26-5.45c-0.47-0.64-1.11-1.13-1.62-1.74c-1.91-2.31-1.42-5.7-0.83-8.63l4.47-22.29
	c0.59-3,2.66-6.19,5.52-7.19c1.35-0.47,3.07-0.82,3.45-2.19c0.21-0.76-0.09-1.65,0.32-2.32"/>
<path class="st0" d="M470.47,197.01c1.26,0.58,2.73,0.44,3.86-0.37c0.7-0.51,1.2-1.25,1.85-1.82c0.54-0.45,1.14-0.83,1.79-1.12
	c2.94-1.21,6.05-1.95,9.22-2.19l13.77-1.77c1.05-0.22,2.13-0.19,3.17,0.07c1.94,0.65,2.94,2.82,3.22,4.84
	c0.19,1.84,0.17,3.69-0.05,5.52c-0.17,2-0.6,4.47-2.47,5.32c-0.79,0.3-1.64,0.42-2.49,0.36l-30.34-0.7"/>
<path class="st0" d="M630.42,311.44c-17.6-28.35-28.58-60.27-38-92.28c-3.24-11-7-23-16.75-29c-2.61-1.51-5.37-2.76-8.22-3.73
	c-7.37-2.79-15-5.62-22.87-5.28c-4.22,0.18-8.68,1.23-12.49-0.56c-0.71-0.31-1.34-0.76-1.86-1.33c-0.83-1.08-1.25-2.42-1.19-3.78
	c-0.03-5.77,4.62-10.48,10.39-10.51c1.27-0.01,2.53,0.22,3.72,0.66c8.14,3,17.63,0.34,26.14,2.09s16.86,5.11,23.32,10.92
	c6.61,5.95,10.83,14,14.91,21.94l7.48,14.5c3.09,6,6.19,12,8.26,18.42c1.95,6,3,12.36,5,18.38c1.3,3.9,3,7.65,4.27,11.57
	c1.31,4.42,2.31,8.93,3,13.49l5.76,33.54"/>
<path class="st0" d="M546.34,332.02c9.32,2,18.74-1.87,28.08-3.73c3.84-0.76,7.74-1.19,11.64-1.59c11.63-1.19,23.3-2.15,35-2.88
	c3.33-0.21,6.91-0.34,9.73,1.46c1.41,0.95,2.57,2.23,3.37,3.73c1,1.77,1.63,3.72,1.86,5.74c0.15,0.77,0.04,1.56-0.3,2.26
	c-0.57,0.74-1.38,1.26-2.29,1.47c-6.43,2.17-13.22,3.08-20,2.69c-3.16-0.18-6.31-0.65-9.48-0.73c-3.97,0.01-7.93,0.31-11.85,0.9
	c-10.51,1.29-21.27,2.35-31.59,0c-3.56-0.82-7.16-2-10.79-1.55"/>
<path class="st0" d="M715.34,401.03c-7.45,0.19-15,0.38-22.27-1.21c-5-1.09-10.13-2.4-15.15-3.24c-6.67-1.11-13.29-2.42-19.88-3.91
	c-1.74-0.32-3.42-0.88-5-1.67c-0.73-0.41-1.41-0.91-2.16-1.27c-2.78-1.35-6.05-0.69-9.14-0.61c-8.35,0.22-16.11-4-23.4-8
	c-1.75-0.85-3.33-2-4.67-3.4c-2.89-3.43-2.45-8.54,0.98-11.43c2.09-1.76,4.92-2.35,7.53-1.57c6.45,1.93,13.07,2.93,19.48,5
	c10.69,3.45,21.93,4.78,33,6.73c15.62,2.75,31.44,7,44.24,16.34"/>
<path class="st0" d="M470.54,420.26c4.22,1.42,8.19-2.34,12-4.62c6.46-3.85,14.43-3.69,21.95-3.89c15-0.38,29.9-2.61,44.89-2.85
	c18.56-0.3,37,2.46,55.38,5.21l32.75,4.9c6.41,1,13.1,2.62,19.45,3.91c3.06,0.62,6.33,1.36,8.42,3.68s2.49,5.63,2.1,8.68
	c-0.3,2.29-1.11,4.67-2.94,6.09s-4.31,1.61-6.63,1.58c-4.32-0.15-8.63-0.58-12.89-1.29l-56.41-8.14
	c-5.82-0.95-11.69-1.57-17.58-1.87c-7.51-0.24-15.42,0.51-22.18-2.78c-3.92-1.91-7.63-5.18-12-4.69c-4.52,0.52-8.54,5.13-12.83,3.61
	c-8.09-2.88-17.17-0.69-25.73,0c-5.74,0.45-11.51,1.33-17.21,0.59c-2.69-0.35-5.57-1-8,0.18"/>
<path class="st1" d="M166.52,297.43c1.36,1.67,3.55,2.42,5.65,1.95c0.32-0.11,0.66-0.15,1-0.14c0.58,0.11,0.98,0.64,0.93,1.23
	c-0.08,0.41-0.32,0.77-0.66,1c-0.34,0.23-0.7,0.45-1.07,0.64c-0.34,0.21-0.68,0.44-1,0.68l-1.29,1c-1.1,0.73-2.09,1.63-2.93,2.65"/>
<path class="st0" d="M189.29,301.85c1.34,0.6,2.78,0.94,4.25,1l16.74,1.79c7.21,0.77,14.6,1.53,21.63-0.26c4-1,8.5-2.77,11.92-0.48
	c0.98,0.75,1.86,1.61,2.64,2.57c4.04,4.29,9.57,6.86,15.45,7.18c2.43,0.12,5-0.14,7.25,0.68c3,1.07,5.1,3.84,6.42,6.74
	s2,6.05,3.31,9c2,4.61,5.31,8.53,8.67,12.27c3.2,3.79,6.81,7.21,10.77,10.21c2.07,1.47,4.46,2.78,7,2.61
	c3.65-0.24,6.35-3.36,8.6-6.23c0.69-0.75,1.19-1.65,1.48-2.62c0.52-2.48-1.75-4.56-3.73-6.15c-4.97-4.01-9.49-8.55-13.45-13.56
	c-2.8-3.54-5.33-7.31-8.54-10.48c-3.64-3.59-8-6.3-12.38-9c-1.38-0.94-2.88-1.68-4.47-2.18c-1.72-0.34-3.47-0.47-5.22-0.39
	c-8.24-0.17-16.19-3.06-22.61-8.23c-3.33-2.69-6.24-6-10.06-7.93c-3.17-1.41-6.55-2.26-10-2.53c-8.71-1.08-17.49-1.54-26.27-1.36
	c-3.9,0.08-10.47,0.54-12.52,4.63C184.27,292.98,185.34,299.73,189.29,301.85z"/>
<path class="st0" d="M284.19,162.04c-2.13-0.36-4.22,0.73-6.07,1.85c-4.27,2.59-8.54,5.31-11.56,9.29c-1.37,2.06-2.87,4.02-4.5,5.87
	c-2.43,2.43-5.74,4-7.49,7c-0.36,0.46-0.47,1.07-0.31,1.63c0.13,0.24,0.31,0.46,0.52,0.63l5,4.57c0.4,0.44,0.9,0.75,1.47,0.92
	c0.77,0.06,1.53-0.2,2.11-0.72c1.37-1,2.5-2.29,3.81-3.37c1.27-0.99,2.6-1.88,4-2.67l3.61-2.18c1.09-0.7,2.23-1.31,3.42-1.83
	c1.42-0.58,2.93-0.89,4.39-1.32c3.13-1.01,6.15-2.35,9-4c0.34-0.16,0.64-0.38,0.89-0.65c0.44-0.73,0.5-1.64,0.16-2.42
	c-0.35-0.77-0.48-1.63-0.39-2.47"/>
<path class="st0" d="M381.23,353.85c-3.24-5.45-6.35-10.98-9.34-16.58c-0.68-1.19-1.25-2.45-1.69-3.75
	c-0.38-1.48-0.64-2.99-0.76-4.51c-0.42-3.46-1.32-7-2-10.43c-0.53-2.63-0.79-5.31-0.79-8c-0.1-1.46,0.19-2.92,0.85-4.23
	c1-1.7,3.2-2.85,3.28-4.84c0-0.62-0.15-1.23-0.42-1.79c-2.07-4.78-7.27-7.38-12.34-6.17c-1.31,0.31-2.56,0.87-3.89,1.13
	c-1.65,0.32-3.36,0.15-4.92-0.47c-2.06-0.83-3.72-2.4-5.65-3.48c-1.18-0.67-2.46-1.15-3.79-1.43c-0.54-0.05-1.05-0.25-1.48-0.57
	c-0.39-0.43-0.56-1.02-0.46-1.59c0.17-1.17,0.9-2.19,1.95-2.74c1.05-0.53,2.25-0.67,3.4-0.4c2.7,0.59,5.9,0.11,8.66,0.22
	c1.41,0.12,2.83,0.05,4.22-0.2c2.83-0.64,5.13-2.74,7.9-3.61c2.38-0.62,4.87-0.65,7.26-0.1c1.87,0.34,3.71,0.84,5.51,1.47
	c1.49,0.39,2.82,1.24,3.8,2.43c1.5,2.16,0.61,5.08,0.48,7.7c-0.13,2.66,0.6,5.3,2.06,7.53c0.68,0.9,1.31,1.83,1.89,2.8
	c0.42,0.84,0.75,1.72,1,2.63c2.85,9.87,5.72,19.86,6.07,30.12c0.01,1.53-0.31,3.04-0.92,4.44c-0.67,1.4-1.11,2.91-1.31,4.45
	c-0.19,1.59,0.55,3.15,1.91,4c0.87,0.32,1.78,0.55,2.7,0.68c1.6,0.55,3,1.58,4,2.95c0.33,0.37,0.6,0.79,0.82,1.24
	c0.35,0.96,0.44,1.99,0.27,3c-0.12,1.27-0.32,2.54-0.6,3.79c-0.27,1.2-1.45,2.1-2.41,2.88c-1.04,0.77-2.18,1.38-3.39,1.83"/>
<path class="st0" d="M261.65,283.11c1.42-0.62,3.07-0.1,4.59-0.42c1.35-0.46,2.61-1.14,3.74-2c1.63-0.87,3.37-1.52,5.17-1.92
	c3.16-0.83,6.36-1.48,9.59-1.94l8.58-1.14c2.28-0.3,4.67-0.65,6.52-2c0.74-0.7,1.56-1.31,2.45-1.81c0.94-0.29,1.92-0.43,2.9-0.43
	c1.38-0.2,2.74-0.48,4.09-0.82c3.55-0.71,7.24-0.48,10.8-1.15s7.23-2.57,8.51-6c0.51-1.36,0.6-2.85,1.09-4.22
	c1-2.68,3.32-4.58,5.68-6.17c2.85-1.92,5.86-3.59,9-5c1.86-0.84,4.05-1.95,4.27-4c0.02-0.89-0.17-1.77-0.55-2.57
	c-0.43-1.42-1.16-2.72-2.14-3.83c-1.94-1.9-5.08-2-7.68-1.16s-4.93,2.31-7.49,3.21c-2.3,0.81-4.75,1.13-7,2
	c-4.83,1.83-8.53,5.82-10,10.77c-0.39,1.36-0.59,2.76-1.08,4.09c-0.28,0.84-0.74,1.61-1.35,2.25c-0.58,0.52-1.26,0.92-2,1.17
	c-3.7,1.41-7.74,1.87-11.29,3.61c-1.4,0.69-2.71,1.57-4.12,2.25c-4.62,2.17-10.01,2.01-14.49-0.45c-0.58-0.38-1.19-0.71-1.82-1
	c-2.35-0.89-4.94,0.14-7.23,1.17c-1.73,0.78-3.46,1.57-5.18,2.38c-0.75,0.35-1.64,1.15-1.16,1.83c0.29,0.27,0.63,0.48,1,0.62
	c0.66,0.63,0.87,1.59,0.54,2.44c-0.47,1.82-1.62,3.38-3.22,4.36"/>
<path class="st0" d="M383.34,191.39c-2.53,0.95-4.96,2.12-7.28,3.51l-5.8,3.24c-3.75,2.09-7.07,4.84-10.66,7.19
	c-8.22,5.39-18.15,8.75-26.36,14.15c-8.92,5.87-19.77,9.45-30.32,7.79c-2-0.32-4.08-0.81-6.05-0.29c-2.94,0.79-4.89,3.65-7.71,4.79
	c-1.53,0.62-3.27,0.71-4.67,1.59c-1.19,0.75-2,2-3.09,2.87c-2.62,2.08-6.54,1.8-9.2,3.83c-1.22,1.13-2.32,2.39-3.27,3.76
	c-3.29,3.87-8.34,5.63-12.89,7.89c-3.32,1.65-6.47,3.62-9.39,5.9c-3.14,2.45-6.28,5.36-10.24,5.86c-5.08,0.66-9.73-2.92-10.39-8
	c-0.33-2.5,0.39-5.03,1.97-7c2.84-3.56,7.74-4.53,11.78-6.64c9.55-5,18.86-11.34,28.44-16.26c3.73-1.92,7.62-3.5,11.51-5.09
	c5.4-2.2,10.82-4.41,16.37-6.2c2.43-0.78,5.18-1.46,7.45-0.29c1.6,0.83,2.77,2.5,4.54,2.87c0.97,0.13,1.96,0.05,2.89-0.24
	c1.82-0.42,3.75-0.9,5.08-2.21s1.91-3.43,3.14-5c1.82-2.26,4.86-3,7.54-4.13c3.24-1.46,6.32-3.24,9.2-5.32
	c1.07-0.6,2.17-1.15,3.3-1.63c2.34-1.39,4.91-2.35,7.59-2.83c1.56-0.18,3.14,0,4.7-0.17c1.59-0.04,3.1-0.69,4.22-1.81
	c0.42-0.55,0.8-1.13,1.14-1.73c1.5-2.2,3.63-3.9,6.11-4.88c2.46-0.97,5.02-1.69,7.63-2.14c0.87-0.24,1.77-0.3,2.66-0.16
	c0.71,0.21,1.39,0.53,2,0.95c1.61,1,3.59,1.84,5.3,1.06"/>
<path class="st0" d="M311.82,38.28c-0.5,1.57,0.61,3.21,1.9,4.25s2.84,1.79,3.8,3.13c1.49,2.07,1.17,4.87,1.28,7.43
	c0.07,1.72,0.37,3.42,0.56,5.13c0.93,8-1.94,16.65-1.46,24.7c0.29,4.86,0.54,10-1.53,14.37c-0.59,0.93-0.93,2-1,3.1
	c0.11,1.61,1.6,2.75,2.3,4.21s0.51,3.43,0.34,5.17c-0.41,3.94-0.45,7.92-0.12,11.87c0.29,3.51,0.86,7.12-0.21,10.48
	c-0.11,0.49-0.38,0.93-0.76,1.26c-0.46,0.26-0.98,0.37-1.5,0.33l-7.69,0.13c-0.89,0.1-1.79-0.06-2.58-0.47
	c-0.49-0.36-0.89-0.83-1.16-1.37c-2.2-3.77-2.58-8.3-2.91-12.66l-0.83-11c-0.52-6.86-1-13.65-0.1-20.47
	c0.5-3.93,1.35-7.82,1.65-11.78c0.53-7.16-0.76-14.64,1.82-21.33c0.59-1.54,1.4-3.07,1.39-4.73c0-2-1.25-3.83-2.21-5.63
	s-1.66-4.06-0.62-5.81c0.93-1.57,3.1-2.46,3.26-4.28"/>
<path class="st0" d="M175.53,16.12c4.42-1.37,9.13-2.75,13.6-1.55c1,0.26,1.87,0.63,2.84,0.82c1.32,0.2,2.67,0.22,4,0.07l5.86-0.41
	c4.43-0.31,8.93-0.62,13.26,0.34c2.02,0.29,3.86,1.3,5.2,2.83c0.63,0.85,1,1.89,1.67,2.71c1.55,1.87,4.43,2.13,6.7,1.25
	c2.22-1.02,4.2-2.5,5.82-4.33c1.62-1.66,3.57-2.97,5.72-3.84c2.13-0.72,4.34-1.15,6.58-1.29c4.66-0.43,9.34-0.45,14-0.08
	c1.18,0.02,2.35,0.29,3.42,0.8c2,1.1,2.76,3.54,2.86,5.79s-0.31,4.51,0,6.74c0.22,1.59,0.78,3.35-0.08,4.7
	c-0.72,0.91-1.77,1.5-2.92,1.64c-2,0.37-4.04,0.53-6.07,0.48c-4,0-8,0-12,0c-2.76,0.07-5.52-0.12-8.24-0.55
	c-2.13-0.41-4.2-1.12-6.35-1.39c-4.39-0.56-9,0.7-13.15-0.92c-3-1.19-5.34-3.8-8.41-4.85c-1.08-0.36-2.25-0.39-3.35-0.09
	c-1.06,0.3-2,0.83-3.08,1.19c-2.66,0.93-5.57,0.75-8.38,0.56l-4.58-0.31c-1.77,0.01-3.53-0.38-5.13-1.14
	c-0.8-0.46-1.47-1.1-2.23-1.61c-1.9-1.27-4.24-1.71-6.48-1.22"/>
<path class="st0" d="M250.72,78.72c-3.3-0.16-6.39-1.62-8.62-4.05c-0.75-0.98-1.59-1.89-2.49-2.73c-2.27-1.79-5.37-1.73-8.27-1.6
	c-7.59,0.36-15.39,0.62-22.58-1.84c-3.19-1.09-6.21-2.7-9.48-3.49c-2.02-0.42-4.07-0.72-6.13-0.9c-4.87-0.59-9.67-1.61-14.47-2.62
	c-10.28-2.18-20.78-4.45-29.78-9.88c-0.75-0.4-1.41-0.94-1.94-1.6c-1.14-1.6-0.65-3.87,0.35-5.56s2.46-3.1,3.32-4.87
	c0.77-1.58,3.38-1.41,5.05-0.88c1.62,0.67,3.2,1.45,4.72,2.33c3.62,1.73,7.76,1.92,11.62,3c3.38,1,6.51,2.6,9.82,3.78
	c6.09,2.18,12.67,2.78,18.72,5.07c3.51,1.33,6.84,3.22,10.51,4c2.86,0.63,5.84,0.57,8.71,1.16c1.76,0.36,3.47,1,5.25,1.26
	c3.05,0.5,6.17,0,9.26,0.19c4.63,0.24,9.09,1.86,12.8,4.64c1.42,1.07,2.8,2.47,3,4.24c0.08,0.85-0.14,1.71-0.08,2.57
	c0.25,2.19,2.19,3.78,4.38,3.6"/>
<path class="st0" d="M257.75,339.04c8.48,10.9,16,22.71,26.06,32.12c6.23,5.8,13.35,10.56,20.42,15.29
	c8.16,5.46,16.36,10.94,25.27,15.06c0.53,0.19,1.01,0.52,1.38,0.95c0.68,0.95,0.17,2.26-0.38,3.28c-1.53,2.89-3.23,5.68-5.09,8.36
	c-0.62,1.02-1.46,1.9-2.45,2.57c-1.94,1.13-4.38,0.59-6.53,0c-14.09-4.07-27.55-10.37-40.26-17.82c-2.73-1.51-5.32-3.25-7.75-5.2
	c-5-4.2-8.54-9.85-12-15.41c-1.58-2.54-8.64-22.59-12.4-29c-0.7-1.19-1.49-2.33-2.28-3.47c-2.08-3-4.28-6-7.37-8
	c-3.53-2.17-7.84-2.67-11.78-1.37c-2.28,0.77-4.41,2.15-6.81,2.31c-2.18,0-4.32-0.59-6.19-1.71c-3.25-1.41-6.59-2.61-10-3.58
	c-1.29-0.24-2.61-0.36-3.92-0.36c1.1-2.34,2.05-4.75,2.84-7.22c2.3,1.27,4.82,2.11,7.42,2.47c0.64,0.11,1.3,0.13,1.95,0.06
	c1.77-0.25,3.18-1.55,4.72-2.47c1.54-1.05,3.3-1.76,5.14-2.07c0.57,0,7-0.94,8.91-0.73c3.05,0.48,6.04,1.27,8.92,2.37
	c1.74,0.63,3.41,1.41,5,2.35C246.47,331.21,253.57,333.67,257.75,339.04z"/>
<path class="st0" d="M19.9,199.71c0.58,3.33,1.62,6.57,3.1,9.61l3.93,9.17c1.74,4.07,3.6,8.31,7.1,11.2s9.15,4,12.74,1.17
	c2.85-2.21,3.58-6.13,3-9.59c-0.33-1.81-0.81-3.59-1.42-5.33l-6-18.65c-0.32-1.1-0.74-2.18-1.23-3.22
	c-1.74-3.29-4.92-5.59-8.59-6.22c-3.53-0.54-7.13,0.36-10,2.49C19.84,192.46,19.53,196.69,19.9,199.71z"/>
<path class="st0" d="M10.73,115.7c-0.17,8.64-0.33,17.36,1.37,25.84c0.49,2.46,1.34,5.15,3.55,6.35c1.08,0.52,2.27,0.77,3.46,0.72
	c4,0,8.16-1.54,10.57-4.73s2.74-7.18,3-11c1.33-18.09,1.88-36.21,1.64-54.36c0-3.35-2.58-6.17-4-9.19c-1.93-4-4-8-4.82-12.39
	c-1.68-0.75-3.49-1.15-5.33-1.18c-0.21-0.02-0.42,0-0.62,0.08c-0.28,0.19-0.5,0.47-0.61,0.79c-1,2-2.75,3.38-4.21,5
	c-4.12,4.71-5.68,11.14-4.17,17.22C13.64,90.63,10.96,103.58,10.73,115.7z"/>
<path class="st0" d="M106.2,51.74c-1.63-1.82-2.1-4.38-3.25-6.54c-0.32-0.61-0.7-1.18-1.13-1.72c-0.66-0.88-1.5-1.61-2.48-2.12
	c-1-0.5-2.16-0.6-3.23-0.27c-0.33,0.11-0.63,0.28-0.9,0.5c-1.22,1-1,2.93-1.51,4.45c-0.48,1.17-1.18,2.25-2.06,3.16
	c-0.88,0.92-1.52,2.03-1.88,3.25c-0.33,1.26,0.21,2.58,1.32,3.25c0.71,0.28,1.49,0.31,2.22,0.07c0.73-0.19,1.43-0.51,2.16-0.68
	c1.8-0.37,3.67-0.05,5.24,0.91"/>
<path class="st0" d="M218.06,135.52c-1.81,1.14-3.87,1.82-6,2c-2.26,0-4.37-1.07-6.59-1.51c-5.48-1.08-11.16,1.79-16.64,0.75
	c-4.64-0.88-8.25-4.36-12.1-7.09c-3.52-2.49-7.4-4.42-11.51-5.72c-1.73-0.55-3.7-1.15-4.48-2.79c-0.39-1.12-0.48-2.33-0.27-3.5
	c0.32-4.13-0.18-8.31,0.35-12.42s2.29-8.39,5.91-10.39c2.5-1.39,6-0.64,8.63,0.49c6.4,2.73,10,10.24,16.7,12.19
	c1.85,0.54,3.83,0.6,5.67,1.18c1.87,0.68,3.62,1.63,5.22,2.81c1.78,1.05,3.35,2.43,4.62,4.06c1.25,1.81,1.74,4,2.88,5.93
	c2.82,4.66,8.88,6.15,13.54,3.33c1.06-0.64,2-1.48,2.75-2.48c1.92-2.52,4-4.94,6.16-7.3c2.02-2.46,4.65-4.34,7.64-5.45
	c2.91-0.92,6.06-0.68,9-1.37c4.81-1.11,8.75-4.55,13.37-6.28c1.34-0.48,2.71-0.88,4.09-1.21l4.55-1.17
	c2.81,3.75,5.11,7.85,6.85,12.2c-3.16-0.66-6.43,0.57-9.13,2.34s-5,4.09-7.59,6c-5.67,4.14-12.58,6.14-19.34,8.07
	C234.48,130.42,225.34,131.68,218.06,135.52z"/>
<path class="st0" d="M192.69,195.34c1.83-2.78,2.18-6.59,4.81-8.62c1.05-0.71,2.2-1.27,3.41-1.67c4.81-1.94,9.09-4.99,12.5-8.9
	c1.19-1.5,2.47-2.94,3.83-4.3c1.37-1.38,3.18-2.23,5.12-2.42c3.2-0.02,5.87,2.44,6.11,5.63c0.09,2.41-1.31,4.65-3,6.31
	s-3.83,2.92-5.68,4.46c-1.96,1.44-3.34,3.53-3.9,5.9c-0.3,1.79,0.16,3.62,0,5.43c-0.29,2.95-1.75,5.66-4.06,7.51
	c-2.3,1.82-4.96,3.13-7.81,3.83c-4.79,1.33-9.8,1.67-14.72,1"/>
<path class="st0" d="M104.54,93.85c-3.32,1.41-5.76,5.1-5,8.63c0.63,3,3.25,5.21,5.93,6.74c5.89,3.36,13.21,5.06,17,10.66
	c0.47,0.59,0.74,1.32,0.76,2.08c-0.08,0.64-0.34,1.24-0.76,1.73c-2.28,2.92-6.04,4.26-9.65,3.44c-2.22-0.54-4.2-1.89-6.45-2.32
	s-5.11,0.62-5.4,2.89c-0.24,2,1.5,3.53,3,4.81c2.76,2.34,5.27,4.94,7.51,7.78c1.3,1.9,2.86,3.61,4.63,5.09c1.86,1.35,4.42,2,6.49,1
	c2.03-1.07,3.02-3.43,2.36-5.63c-0.53-1.58-1.91-3-1.63-4.64s1.85-2.41,3.26-3.07c0.57-0.31,1.2-0.51,1.84-0.59
	c2.32-0.14,3.62,2.56,4.37,4.76c2.88,8.35,7.14,16.15,12.62,23.08c2.16,2.73,4.54,5.37,5.82,8.6c1.22,3.07,1.54,6.76,4.07,8.89
	c1.25,0.99,2.79,1.55,4.38,1.61c2.03,0.12,4.04-0.39,5.77-1.46c3.26-2.19,5.17-5.89,5.06-9.82c-0.17-3.89-1.78-7.58-4.51-10.35
	c-1.15-1.21-2.44-2.26-3.63-3.43c-4.62-4.54-7.42-10.57-10.35-16.35c-8-15.83-18.41-31.57-33.83-41
	C113.91,94.27,109.84,91.58,104.54,93.85z"/>
<path class="st0" d="M58.86,90.99c0.9,3.11,3.44,5.47,6.61,6.15c1.92,0.38,3.93,0.1,5.83,0.57c0.9,0.22,1.75,0.6,2.66,0.79
	c0.9,0.25,1.87,0.13,2.68-0.34c0.69-0.54,1.16-1.31,1.33-2.17c0.22-0.84,0.32-1.71,0.63-2.52c0.38-1,1.06-1.87,1.34-2.9
	c0.28-1.66-0.04-3.37-0.89-4.82c-0.37-1.07-1.15-1.96-2.16-2.47c-0.52-0.15-1.07-0.22-1.61-0.18h-6.36"/>
<path class="st0" d="M150.43,244.48c-0.61-1.01-0.52-2.29,0.23-3.2c0.64-0.58,1.34-1.08,2.1-1.48c0.77-0.42,1.22-1.25,1.17-2.13
	c-0.12-0.43-0.35-0.82-0.66-1.14l-2.48-3c-0.38-0.51-0.83-0.95-1.34-1.33c-1.25-0.83-2.87-0.69-4.37-0.78
	c-5.26-0.32-9.74-3.93-11.17-9c-0.18-1.07-0.43-2.12-0.75-3.15c-0.8-2-2.72-3.49-3.38-5.56c-4.63-14.55-17.75-24.67-26.51-37.18
	c-2.31-3.3-1.28-8.06-1.9-12s-2-8.13-5.15-10.62s-8.55-2.4-10.65,1c-0.78,1.53-1.18,3.22-1.16,4.94c-0.26,4.3-0.2,8.6,0.17,12.89
	c0.17,2.97,0.77,5.9,1.76,8.71c0.87,2.07,1.93,4.05,3.17,5.92c11.21,18.04,23.97,35.07,38.15,50.89c2.66,2.75,5.03,5.77,7.08,9
	c1.08,1.86,2,4,3.91,5c2.87,1.63,6.66,0.1,9.69,1.39"/>
<path class="st0" d="M229.89,422.43c-1.57,1.91-3.22,4-3.23,6.52c0.16,2.2,1.2,4.25,2.89,5.67c1.58,1.5,3.47,2.65,5.09,4.11
	c4.68,4.19,6.84,10.47,10.53,15.56c2.56,3.52,5.85,6.45,9.64,8.59c4.36,2.46,8.23,6,13.05,7.3c1.8,0.5,3.78,0.82,5.14,2.11
	c1.77,1.68,1.9,4.41,2.84,6.66c1.49,3.57,5.08,5.87,8.76,7s7.59,1.44,11.38,2.23c1.91,0.49,3.86,0.86,5.82,1.1
	c1.65,0.08,3.3,0.03,4.94-0.16l31.35-2.74c1.1-0.17,2.07-0.82,2.64-1.77c0.62-0.91,1-2,1.52-2.94c0.84-1.45,2.12-2.61,3.66-3.29
	c1.23-0.54,2.59-0.76,3.85-1.25c1.95-0.75,3.8-2.14,5.87-1.94c1.77,0.34,3.33,1.4,4.3,2.92c0.95,1.51,2.06,2.91,3.31,4.18
	c2.83,2.43,7,2.37,10.69,2.12c2.13-0.07,4.24-0.4,6.28-1c2.06-0.6,3.83-1.92,5-3.72c0.53-0.9,0.85-1.92,1.37-2.83
	c1.83-2.94,5.47-4.19,8.72-3c0.07-1.23-0.31-3.2-1.55-3.22c-0.27,0.02-0.53,0.07-0.79,0.15c-1.58,0.29-3.22-0.03-4.58-0.88
	c-1.39-0.77-2.61-1.83-3.93-2.71c-5.82-3.9-13.22-4.29-20.22-4.42c-5.69-0.2-11.38-0.02-17.05,0.52
	c-5.67,0.76-11.29,1.84-16.84,3.24l-12.1,2.79c-7.77,1.79-16-1.17-23.42-4.13c-2.19-0.84-4.28-1.92-6.24-3.22
	c-4.31-3-7.85-6.88-11.56-10.55c-4.82-4.77-10-9.18-15.49-13.17c-1.6-1.17-3.24-2.3-4.87-3.43l-15.69-10.9
	c-1.28-0.99-2.71-1.78-4.23-2.32C235.21,421.14,230.92,421.18,229.89,422.43z"/>
<path class="st0" d="M400.95,428.13l11.77,3.89c0.53,0.18,0.83,0.75,0.65,1.29l-1.23,3.72c-0.18,0.53-0.75,0.83-1.29,0.65
	l-11.77-3.89c-0.53-0.18-0.83-0.75-0.65-1.29l1.23-3.72C399.84,428.25,400.41,427.96,400.95,428.13z"/>
<path class="st0" d="M372.24,415.38l4.85,1.6c0.53,0.18,0.83,0.75,0.65,1.29l-0.29,0.86c-0.18,0.53-0.75,0.83-1.29,0.65l-4.85-1.6
	c-0.53-0.18-0.83-0.75-0.65-1.29l0.29-0.86C371.12,415.49,371.7,415.2,372.24,415.38z"/>
<path class="st2" d="M175.91,331.59c-0.75,0.4-1.39,0.99-1.85,1.71c-0.46,0.74-0.49,1.66-0.09,2.43c0.62,0.77,1.51,1.26,2.49,1.36
	c1.79,0.55,3.69,0.55,5.48,0c1.23-0.65,2.4-1.4,3.5-2.26c2.17-1.27,4.68-1.84,7.19-1.65c1.52,0.07,3.15,0.32,4.47-0.44
	c0.78-0.52,1.43-1.2,1.92-2c0.78-1.11,1.55-2.61,0.81-3.74c-0.38-0.47-0.89-0.82-1.47-1c-1.97-0.83-4.1-1.26-6.24-1.24
	c-3.27,0-4.67,2.07-7.32,3.44C181.95,329.61,178.67,329.95,175.91,331.59z"/>
<path class="st3" d="M239.49,355.11c0.38,0.24,0.81,0.38,1.26,0.43c1.12-0.12,2.01-1,2.13-2.12c0.38-1.91-0.55-3.83-1.63-5.45
	c-2.6-3.85-6.21-6.91-10.44-8.84c-1.34-0.67-2.82-1.02-4.32-1c-0.61,0.05-1.22,0.15-1.81,0.31c-3.21,0.77-6.62,2.09-8.24,5
	c-1.21,2.16-1.17,4.76-1.5,7.2c-0.59,4.3-2.41,8.49-2,12.8c0.02,1.08,0.43,2.12,1.17,2.92c0.38,0.33,0.83,0.57,1.32,0.7
	c1.27,0.3,2.6,0.16,3.78-0.39c1.17-0.56,2.28-1.23,3.32-2c1.28-0.79,2.47-1.72,3.54-2.78c1.07-1.08,1.67-2.54,1.67-4.06
	c-0.08-1.38-0.82-2.62-1.1-4c-0.23-1.52-0.12-3.08,0.32-4.55c0.15-0.75,0.42-1.47,0.82-2.12c0.41-0.66,1.1-1.09,1.87-1.17
	c1.26-0.05,1.65,1,2.18,1.89c0.61,1,1.31,1.94,2.09,2.81C235.5,352.48,237.39,353.97,239.49,355.11z"/>
<path class="st2" d="M11.2,46.7c-0.38,0.47-0.65,1.02-0.77,1.61c-0.04,1.29,0.67,2.5,1.82,3.09c1.07,0.67,2.32,1,3.4,1.68
	c1.33,0.97,2.53,2.1,3.58,3.37c1.06,1.27,2.54,2.12,4.17,2.4c0.74,0.13,1.48-0.16,1.94-0.75c0.19-0.45,0.25-0.94,0.16-1.42
	l-0.63-7.45c-0.02-0.52-0.11-1.03-0.25-1.53c-0.59-1.74-2.49-2.63-4.23-3.23C16.58,43.16,13.65,43.38,11.2,46.7z"/>
<path class="st0" d="M83.14,264.38l9.29,8.21c0.42,0.37,0.46,1.02,0.09,1.44l-2.6,2.94c-0.37,0.42-1.02,0.46-1.44,0.09l-9.29-8.21
	c-0.42-0.37-0.46-1.02-0.09-1.44l2.6-2.94C82.08,264.05,82.72,264.01,83.14,264.38z"/>
<path class="st0" d="M50.77,243.12l0.81,2.77c0.16,0.54-0.15,1.11-0.69,1.26l-2.94,0.85c-0.54,0.16-1.11-0.15-1.26-0.69l-0.81-2.77
	c-0.16-0.54,0.15-1.11,0.69-1.26l2.94-0.85C50.05,242.27,50.61,242.58,50.77,243.12z"/>
<path class="st3" d="M61.34,255.94l-2.32-1.88c2.94-2.53,6-5.25,7.14-9c0.3-1.11,0.52-2.24,0.63-3.39c0.9-7,1.81-14,1.39-21
	c-0.21-5.27-1.58-10.43-4-15.12c-3.59-6.32-6.81-12.84-9.66-19.52c-0.94-2.61-2.06-5.14-3.37-7.58c-1.54-2.89-4.06-5.14-7.11-6.33
	c-1.43-0.42-2.9-0.67-4.39-0.76l-7.57-0.73c-2.49-0.24-5.19-0.43-7.29,0.93c-1.21,0.78-2.25,2.08-3.69,2.09
	c-0.84-0.09-1.65-0.37-2.37-0.82c-2.08-1-4.41-1.35-6.69-1c-2.23,0.37-4.51-0.13-6.38-1.39c-1.84-1.28-3.52-2.89-5.66-3.55
	c5.23,0.05,10.44,0.8,15.48,2.21c1.33,0.5,2.76,0.7,4.18,0.59c1-0.24,1.96-0.6,2.87-1.09c6.69-3,14.38-2,21.71-1.73
	c2.87,0.12,6.13,0,8-2.21c1.15-1.32,2-2.91,3.27-4.15l13.44-13.55c0.8-0.74,1.51-1.59,2.1-2.51c0.54-1.09,0.99-2.22,1.34-3.38
	c1.79-4.69,5.74-8.15,8.87-12.09c3.13-3.94,5.54-9.27,3.57-13.89c-1.86-4.59-2.48-9.59-1.79-14.5c0.35-2.53,1.05-5,1.41-7.54
	c0.88-6.3-0.38-12.71-3.56-18.21c-1.01-1.47-1.83-3.07-2.44-4.75c-0.11-0.58-0.3-1.15-0.58-1.67c-0.74-1.14-2.3-1.28-3.57-1.75
	c-3.12-1.15-4.76-4.49-6.1-7.53c-0.6-1.36-1.2-3-0.51-4.28s2.18-1.71,3.19-2.7c1.48-1.45,1.59-3.76,1.61-5.83
	c0.02-0.29-0.03-0.58-0.15-0.84c-0.3-0.37-0.75-0.58-1.23-0.58c-2.56-0.34-5.23,0-7.67-0.8s-4.5-3.71-3.24-6
	c0.87-1.55,2.82-2,4.38-2.87c1.56-0.87,2.94-2.92,1.8-4.28c-1.4-1.68-4.9-0.15-5.93-2.07c-0.59-1.09,0.19-2.39,0.22-3.63
	c0.06-2.2-2.13-3.67-3.94-4.92s-3.67-3.41-2.72-5.39c1.28-2.66,0.38-6.27-1-8.89c-0.67-1.33-1.73-2.64-1.77-4.21
	C52.89,1.4,54.5,0.78,56.02,0c1.06,5.44,1.54,10.98,1.42,16.52c-0.04,0.53,0.03,1.07,0.2,1.58c0.57,1.32,2.3,1.55,3.57,2.23
	c1.54,0.86,2.47,2.5,2.42,4.26c0,1-0.31,2.1,0.42,2.72c0.58,0.33,1.25,0.48,1.91,0.42c2.22,0.3,3.95,2.1,4.15,4.33
	c0.11,2.22-1.1,4.3-3.09,5.31c-1.09,0.56-2.52,1-2.82,2.15c-0.39,1.57,1.66,2.68,3.26,2.51s3.2-1,4.77-0.57
	c2.35,0.58,3.29,3.37,3.69,5.76c0.37,1.39,0.29,2.86-0.25,4.2c-0.64,0.91-1.36,1.76-2.17,2.52c-1.82,2.34-1.74,5.65,0.19,7.9
	c2.44,2.69,7,2.9,9,5.92c3.19,4.75,4.39,11.2,5.54,16.8s1.22,11.56-0.78,16.93c-0.59,1.27-1.01,2.62-1.25,4
	c-0.28,2.94,1.58,5.61,2.24,8.49c0.91,3.92-0.39,8.37,1.61,11.86c1.88,3.29,6.29,4.92,7.21,8.59c1.3,5.15,6.4,8.43,9.51,12.73
	c2,2.74,3.05,6.11,5.33,8.61c2.76,3,7.08,4.56,9.11,8.11c1.24,2.17,1.44,4.84,2.79,6.95s4,3.65,5,6.11
	c0.38,1.36,0.67,2.74,0.88,4.13c0.55,1.67,1.37,3.25,2.43,4.65l16.29,24.19c1.34,2,2.67,4,4,5.93c7.18,10.31,15.21,20.01,24,29
	c2.53,2.58-0.19,7.51-2.27,10.47c-1,1.37-2.18,2.53-3.05,4c-0.98,1.38-1.22,3.16-0.65,4.75c0.7,1.5,2.32,2.27,3.73,3.14
	c3.69,2.26,6.7,6.43,5.9,10.68c-0.75,4-4.64,7.69-3.05,11.42c0.78,1.83,2.7,2.94,3.66,4.68c1.6,2.92,0.07,6.65,1,9.84
	c0.83,2.74,3.38,4.62,6,5.68c7.6,3.06,16.17,0.89,24.36,1.22c5.59,0.23,11.41,1.61,16.64-0.38c3.88-1.48,7.54-4.79,11.58-3.83
	c4.85,1.15,6.44,7.57,10.84,9.93c4.4,2.36,10.52-0.18,15,2.32c6.39,3.58,4.61,14.25,10.33,18.83c1.2,3.8,5.42,6.53,7.88,9.67
	c1.31,1.83,2.38,3.81,3.18,5.91l-1.8,1.06c-1.18-2.13-2.6-4.12-4.23-5.94c-0.67-0.93-1.53-1.7-2.53-2.26
	c-0.61-0.14-1.15-0.53-1.47-1.07c-2.06-6.52-8.1-11.1-9.73-17.75c-0.42-1.7-0.8-3.58-2.16-4.69c-0.77-0.56-1.65-0.94-2.58-1.11
	c-3.44-0.83-7-0.88-10.51-1.54c-3.51-0.66-7-2.08-9.12-5c-1.39-1.91-2.44-4.64-4.79-4.86c-1.25,0.05-2.47,0.44-3.52,1.13
	c-4.86,2.42-10.49,2.6-15.93,2.74c-12,0.3-24.24,0.59-35.95-2.26c-2.34-0.57-3.71-3.63-4.18-6s-0.34-4.84-1-7.15
	c-1.28-4.34-5.32-7.92-5-12.44c0.3-4.18,4.37-8,2.91-11.94c-1-2.56-3.82-3.73-5.86-5.54c-3.9-3.71-4.45-9.75-1.27-14.1
	c0.76-0.82,1.45-1.7,2.06-2.63c0.98-2.12,0.86-4.58-0.32-6.6c-1.18-1.97-2.62-3.77-4.3-5.34c-4.69-4.93-8.86-10.33-12.46-16.1
	c-4.84-7.77-10.61-14.65-15.82-22.18c-3.92-5.67-7.89-11.42-10.3-17.88c-0.45-1.55-1.12-3.02-2-4.37c-0.82-1.08-1.94-1.9-2.84-2.92
	c-2.81-3.22-3-8-5.48-11.52c-2.15-3-5.74-4.63-8.39-7.22c-3.14-3.08-4.81-7.39-7.91-10.5c-1.35-1.13-2.58-2.39-3.68-3.77
	c-0.76-1.4-1.43-2.85-2-4.34c-1.66-3.37-4.81-5.76-8.5-6.44c-1.33-0.28-2.71-0.2-4,0.25c-2.21,0.85-3.62,3-4.74,5.09
	c-2.12,3.91-3.79,8.03-5,12.31c-4.64,3.51-8.91,7.48-12.75,11.85c-1.15,1.56-2.59,2.88-4.25,3.88c-0.52,0.88-0.95,1.62-1.48,2.49
	c-0.67,0.85-1.02,1.91-1,3c2.32,11.14,6.6,21.77,12.63,31.42c1.15,1.69,2.16,3.47,3,5.33c1,2.88,1.55,5.89,1.64,8.93
	c0.49,3.7,0.58,7.44,0.27,11.16c-0.34,2.55-1.06,5-1.29,7.61c-0.18,2-0.06,4-0.37,6c-1.59,10.35-11.92,15.13-16.83,23.42
	c-2.17,3.66-4.09,7.58-7.16,10.53c-2.64,2.55-6.29,4.68-6.85,8.31c-0.44-1.64-1.3-3.13-2.5-4.33c1-1.65,2.87-2.61,4.34-3.9
	c2.35-2.07,3.77-5,5.38-7.66c3.34-5.58,7.71-10.48,12.88-14.43"/>
<path class="st2" d="M102.9,50.62c-1.57,0.47-2.67,1.91-2.7,3.55c0,2.44,2.21,4.45,2.27,6.89c0,1.5-0.75,3-0.45,4.46
	c0.2,0.76,0.61,1.46,1.18,2c2.44,2.49,6.44,2.52,8.92,0.08c0.33-0.33,0.62-0.69,0.88-1.08c0.96-1.44,1.16-3.26,0.51-4.86
	c-0.73-1.62-2.36-2.61-3.61-3.88C107.78,55.63,107.16,49.49,102.9,50.62z"/>
<path class="st0" d="M39.29,16.52l2.33,1.71c0.45,0.33,0.55,0.97,0.22,1.43l-1.81,2.47c-0.33,0.45-0.97,0.55-1.43,0.22l-2.33-1.71
	c-0.45-0.33-0.55-0.97-0.22-1.43l1.81-2.47C38.2,16.28,38.84,16.19,39.29,16.52z"/>
<path class="st0" d="M46.56,17.63l2.33,1.71c0.45,0.33,0.55,0.97,0.22,1.43l-3.78,5.14c-0.33,0.45-0.97,0.55-1.43,0.22l-2.33-1.71
	c-0.45-0.33-0.55-0.97-0.22-1.43l3.78-5.14C45.47,17.39,46.11,17.29,46.56,17.63z"/>
<path class="st0" d="M48.51,44.61l2.79,0.77c0.54,0.15,0.86,0.71,0.71,1.25l-0.64,2.3c-0.15,0.54-0.71,0.86-1.25,0.71l-2.79-0.77
	c-0.54-0.15-0.86-0.71-0.71-1.25l0.64-2.3C47.4,44.78,47.97,44.46,48.51,44.61z"/>
<path class="st2" d="M270.64,100.02c-1.02,0.79-1.51,2.09-1.25,3.36c0.13,0.42,0.34,0.81,0.62,1.15c1.72,2.17,5,2.71,6.59,4.95
	c0.56,0.77,1,1.79,1.88,2.08c1.09,0.21,2.16-0.46,2.45-1.53c0.25-1.05,0.2-2.14-0.12-3.17c-0.32-1.03-0.38-2.11-0.18-3.17
	c0.3-1.07,1.17-2.05,1-3.15s-1.6-1.83-2.82-2C276.02,97.97,272.89,98.1,270.64,100.02z"/>
<path class="st0" d="M130.69,57.08l1.95,2.14c0.38,0.42,0.35,1.06-0.07,1.44l-1.67,1.52c-0.42,0.38-1.06,0.35-1.44-0.07l-1.95-2.14
	c-0.38-0.42-0.35-1.06,0.07-1.44l1.67-1.52C129.66,56.63,130.31,56.66,130.69,57.08z"/>
<path class="st0" d="M140.31,60.18l1.95,2.14c0.38,0.42,0.35,1.06-0.07,1.44l-1.67,1.52c-0.42,0.38-1.06,0.35-1.44-0.07l-1.95-2.14
	c-0.38-0.42-0.35-1.06,0.07-1.44l1.67-1.52C139.28,59.74,139.93,59.77,140.31,60.18z"/>
<path class="st0" d="M141.5,75.15l1.95,2.14c0.38,0.42,0.35,1.06-0.07,1.44l-1.67,1.52c-0.42,0.38-1.06,0.35-1.44-0.07l-1.95-2.14
	c-0.38-0.42-0.35-1.06,0.07-1.44l1.67-1.52C140.48,74.71,141.12,74.74,141.5,75.15z"/>
<path class="st2" d="M192.91,195.08c-1.07,0.92-1.88,2.1-2.36,3.43l-2.49,5.41c-0.59,1.27-1.18,2.74-0.61,4
	c0.46,0.99,1.51,1.57,2.59,1.44c1.57-0.22,2.51-1.79,3.5-3c2.05-2.44,4.87-4.1,8-4.72c1.35-0.15,2.66-0.56,3.86-1.21
	c1.04-0.73,1.68-1.92,1.72-3.19c0.03-0.5-0.09-0.99-0.35-1.42c-0.68-0.74-1.65-1.15-2.65-1.13
	C200.98,194.32,195.67,193.01,192.91,195.08z"/>
<path class="st0" d="M278.45,124.54l1.95,2.14c0.38,0.42,0.35,1.06-0.07,1.44l-1.67,1.52c-0.42,0.38-1.06,0.35-1.44-0.07l-1.95-2.14
	c-0.38-0.42-0.35-1.06,0.07-1.44l1.67-1.52C277.42,124.09,278.07,124.12,278.45,124.54z"/>
<path class="st0" d="M274.06,128.66l1.95,2.14c0.38,0.42,0.35,1.06-0.07,1.44l-9.93,9.05c-0.42,0.38-1.06,0.35-1.44-0.07l-1.95-2.14
	c-0.38-0.42-0.35-1.06,0.07-1.44l9.93-9.05C273.03,128.22,273.68,128.25,274.06,128.66z"/>
<path class="st0" d="M261.01,140.77l1.95,2.14c0.38,0.42,0.35,1.06-0.07,1.44l-13,11.85c-0.42,0.38-1.06,0.35-1.44-0.07l-1.95-2.14
	c-0.38-0.42-0.35-1.06,0.07-1.44l13-11.85C259.98,140.32,260.63,140.35,261.01,140.77z"/>
<path class="st0" d="M175.43,209.98l1.94,9.96c0.11,0.55-0.25,1.09-0.81,1.2l-9.91,1.93c-0.55,0.11-1.09-0.25-1.2-0.81l-1.94-9.96
	c-0.11-0.55,0.25-1.09,0.81-1.2l9.91-1.93C174.78,209.06,175.32,209.42,175.43,209.98z"/>
<path class="st1" d="M154.47,180.75l0.51,2.61c0.11,0.55-0.25,1.09-0.81,1.2l-2.59,0.5c-0.55,0.11-1.09-0.25-1.2-0.81l-0.51-2.61
	c-0.11-0.55,0.25-1.09,0.81-1.2l2.59-0.5C153.82,179.83,154.36,180.19,154.47,180.75z"/>
<path class="st2" d="M59.17,79.91c-2.19-0.64-4.49,0.61-5.14,2.81c-0.37,1.25-0.13,2.59,0.65,3.63c0.91,1.41,2.08,2.63,3.44,3.61
	c0.66,0.58,1.38,1.08,2.16,1.48c0.71,0.32,1.45,0.53,2.22,0.63c2.91,0.51,5.9-0.03,8.44-1.53c0.91-0.53,1.67-1.28,2.21-2.18
	c0.54-0.91,0.65-2,0.31-3c-0.66-1.68-2.66-2.37-4.46-2.52s-3.62,0-5.17-0.81C62.42,81.04,60.84,80.32,59.17,79.91z"/>
<path class="st2" d="M146,235.54c-1.36-1.15-3.65-1.3-4.81,0c-0.71,0.98-0.95,2.23-0.63,3.4c0.32,1.15,0.71,2.28,1.17,3.39
	c0.47,1.52,0.81,3.07,1,4.65c0.1,1.09,0.38,2.15,0.83,3.15c1.2,2.32,4.1,3.32,6.7,3.13c1.45-0.04,2.83-0.58,3.92-1.54
	c1.08-1,1.39-2.59,0.76-3.93c-0.3-0.48-0.68-0.9-1.13-1.25c-1.87-1.6-3.83-3-5-5.25C147.7,239.41,147.79,237.06,146,235.54z"/>
<path class="st0" d="M52.44,94.58l0.9,2.75c0.18,0.54-0.12,1.11-0.65,1.29l-2.15,0.7c-0.54,0.18-1.11-0.12-1.29-0.65l-0.9-2.75
	c-0.18-0.54,0.12-1.11,0.65-1.29l2.15-0.7C51.69,93.76,52.27,94.05,52.44,94.58z"/>
<path class="st0" d="M55.63,101.38l2.31,7.03c0.18,0.54-0.12,1.11-0.65,1.29l-2.15,0.7c-0.54,0.18-1.11-0.12-1.29-0.65l-2.31-7.03
	c-0.18-0.54,0.12-1.11,0.65-1.29l2.15-0.7C54.87,100.55,55.45,100.84,55.63,101.38z"/>
<path class="st0" d="M62.65,135.61l1.78,2.28c0.35,0.44,0.27,1.08-0.18,1.43l-1.78,1.39c-0.44,0.35-1.08,0.27-1.43-0.18l-1.78-2.28
	c-0.35-0.44-0.27-1.08,0.18-1.43l1.78-1.39C61.66,135.09,62.3,135.17,62.65,135.61z"/>
<path class="st0" d="M186.26,359.2c-1.17,0.33-2.42,0.15-3.45-0.49c-1.06-0.56-2-1.34-3.05-1.89c-1.35-0.62-2.79-1.05-4.26-1.28
	c-1.42-0.36-2.89-0.51-4.35-0.46c-1.48,0.06-2.87,0.75-3.82,1.89c-1.23,1.65-1,3.93-0.66,6l0.39,2.53c0.07,0.78,0.29,1.53,0.64,2.23
	c0.89,1.52,2.87,2,4.64,2c1.91,0.06,3.82-0.2,5.65-0.76c1.92-0.59,3.86-1.52,5.83-1.15"/>
<path class="st0" d="M91.93,327.09l11.15,5.43c0.51,0.25,0.72,0.86,0.47,1.36l-3.01,6.19c-0.25,0.51-0.86,0.72-1.36,0.47
	l-11.15-5.43c-0.51-0.25-0.72-0.86-0.47-1.36l3.01-6.19C90.82,327.05,91.43,326.84,91.93,327.09z"/>
<path class="st0" d="M111.87,335.81l4.66,2.27c0.51,0.25,0.72,0.86,0.47,1.36l-1.06,2.18c-0.25,0.51-0.86,0.72-1.36,0.47l-4.66-2.27
	c-0.51-0.25-0.72-0.86-0.47-1.36l1.06-2.18C110.75,335.77,111.36,335.56,111.87,335.81z"/>
<path class="st3" d="M271.62,474.3c-1.92-1.76-5.06-0.93-7.44-2c-1.36-0.6-2.39-1.78-3.73-2.41s-3.35-0.4-3.78,1
	c-0.17,1,0.21,2.01,1,2.65c0.77,0.62,1.48,1.32,2.11,2.08c1,1.45,0.75,3.38,1.4,5c0.83,2.07,2.93,3.3,4.89,4.37
	c1.59,0.92,3.24,1.73,4.94,2.42c1.47,0.56,3.73,0.92,4.33-1c0.46-1.49-0.94-2.13-1.49-3.34
	C272.55,480.36,274.05,476.53,271.62,474.3z"/>
<path class="st2" d="M395.72,468.41c-0.99,0.73-1.67,1.8-1.93,3c-0.03,1.24,0.63,2.39,1.71,3c1.07,0.57,2.24,0.91,3.44,1
	c1.38,0.27,2.79,0.26,4.16-0.05c2.26-0.64,3.86-2.61,5.31-4.46l3.91-5c0.53-0.63,0.98-1.32,1.33-2.07c0.39-1.13,0.55-2.33,0.46-3.53
	c0.02-0.84-0.07-1.68-0.26-2.5c-0.2-0.82-0.68-1.55-1.37-2.05c-0.72-0.4-1.53-0.62-2.35-0.64c-0.67-0.05-1.31-0.09-1.92-0.11
	c-0.47-0.04-0.94,0.01-1.39,0.15c-0.85,0.46-1.5,1.22-1.84,2.13c-1.21,2.47-2.67,4.82-4.35,7c-0.56,0.6-1.2,1.1-1.92,1.49
	C397.64,466.57,396.64,467.45,395.72,468.41z"/>
<path class="st0" d="M186.07,385.1l8.97,9.94c0.38,0.42,0.34,1.06-0.07,1.44l-1.8,1.62c-0.42,0.38-1.06,0.34-1.44-0.07l-8.97-9.94
	c-0.38-0.42-0.34-1.06,0.07-1.44l1.8-1.62C185.05,384.65,185.69,384.68,186.07,385.1z"/>
<path class="st1" d="M207.81,410.46l4.03,3.26c0.44,0.35,0.51,1,0.15,1.43l-1.52,1.88c-0.35,0.44-1,0.51-1.43,0.15l-4.03-3.26
	c-0.44-0.35-0.51-1-0.15-1.43l1.52-1.88C206.72,410.17,207.37,410.1,207.81,410.46z"/>
<path class="st2" d="M160.92,295.75c-1.18,1.11-1.45,2.87-1.54,4.5c-0.07,1.33-0.07,2.67,0,4c-0.02,0.84,0.19,1.67,0.62,2.39
	c0.37,0.47,0.85,0.84,1.4,1.07c1.18,0.59,2.54,0.72,3.81,0.35c1.28-0.4,2.22-1.48,2.44-2.8c0.16-1.35-0.61-2.63-0.77-4
	c-0.11-0.89,0.06-1.79,0-2.68C166.87,295.6,163.25,293.56,160.92,295.75z"/>
<path class="st2" d="M158.52,275.35c-0.55,1.01-0.63,2.21-0.23,3.29c0.54,1.42,1.87,2.42,2.44,3.83c0.2,0.49,0.3,1,0.54,1.5
	c0.71,1.42,2.43,2,3.85,1.29c0.25-0.12,0.48-0.28,0.68-0.47c0.52-0.58,0.96-1.22,1.33-1.91c1-1.59,2.8-2.89,2.94-4.78
	c0.03-0.32-0.02-0.65-0.15-0.94c-0.35-0.56-0.94-0.91-1.6-0.94c-0.64-0.08-1.3,0-1.94-0.08c-1.17-0.26-2.25-0.79-3.17-1.56
	c-0.87-0.61-1.51-1.39-2.6-1C159.78,273.99,159.06,274.59,158.52,275.35z"/>
<path class="st0" d="M128.48,300.58l3.21-2.55c0.44-0.35,1.08-0.28,1.43,0.16l1.96,2.48c0.35,0.44,0.28,1.08-0.16,1.43l-3.21,2.55
	c-0.44,0.35-1.08,0.28-1.43-0.16l-1.96-2.48C127.96,301.57,128.04,300.93,128.48,300.58z"/>
<path class="st0" d="M119.67,318.48l6.68-7.56c0.37-0.42,1.02-0.46,1.44-0.09l4.07,3.6c0.42,0.37,0.46,1.02,0.09,1.44l-6.68,7.56
	c-0.37,0.42-1.02,0.46-1.44,0.09l-4.07-3.6C119.33,319.55,119.29,318.9,119.67,318.48z"/>
<path class="st0" d="M389.87,395.45l4.85,1.6c0.53,0.18,0.83,0.75,0.65,1.29l-0.29,0.86c-0.18,0.53-0.75,0.83-1.29,0.65l-4.85-1.6
	c-0.53-0.18-0.83-0.75-0.65-1.29l0.29-0.86C388.76,395.56,389.34,395.27,389.87,395.45z"/>
<path class="st0" d="M378.45,397.4l5.02,2.9c0.49,0.28,0.65,0.91,0.37,1.39l-1.59,2.75c-0.28,0.49-0.91,0.65-1.39,0.37l-5.02-2.9
	c-0.49-0.28-0.65-0.91-0.37-1.39l1.59-2.75C377.34,397.29,377.96,397.12,378.45,397.4z"/>
<path class="st0" d="M370.35,392.6l5.02,2.9c0.49,0.28,0.65,0.91,0.37,1.39l-1.59,2.75c-0.28,0.49-0.91,0.65-1.39,0.37l-5.02-2.9
	c-0.49-0.28-0.65-0.91-0.37-1.39l1.59-2.75C369.24,392.48,369.86,392.31,370.35,392.6z"/>
<path class="st0" d="M343.29,362.22l5.05,2.9c0.49,0.28,0.66,0.91,0.38,1.4l-1.59,2.77c-0.28,0.49-0.91,0.66-1.4,0.38l-5.05-2.9
	c-0.49-0.28-0.66-0.91-0.38-1.4l1.59-2.77C342.17,362.1,342.8,361.93,343.29,362.22z"/>
<path class="st3" d="M251.24,293.7c-1.3,0.78-1.28,2.81-0.33,4c1.06,1.09,2.43,1.83,3.92,2.12c5.16,1.46,10.49,2.18,15.85,2.14
	c1.16-0.08,2.33,0.02,3.46,0.28c1.57,0.63,2.99,1.58,4.17,2.78c1.19,1.21,2.76,1.98,4.44,2.2c1.68,0.06,3.5-1.34,3.25-3
	c-0.21-0.84-0.68-1.6-1.34-2.17c-3.1-3.19-6.86-5.91-11.19-6.92c-4.15-1-8.43-0.3-12.64-0.61c-1.47-0.09-2.93-0.27-4.37-0.53
	C254.89,293.67,252.76,292.79,251.24,293.7z"/>
<path class="st2" d="M284.59,162.22c-1.89,0.13-3.49,1.44-4,3.27c-0.11,0.5-0.07,1.02,0.12,1.5c0.49,1.14,1.88,1.56,3.1,1.78
	s2.6,0.48,3.29,1.52c0.43,0.65,0.49,1.47,0.9,2.13c0.76,1.1,2.27,1.37,3.37,0.61c0.07-0.05,0.14-0.11,0.21-0.17
	c0.67-0.65,0.9-1.66,1.57-2.32c0.62-0.5,1.32-0.88,2.08-1.13c0.77-0.25,1.38-0.84,1.68-1.59c0.15-1-0.4-1.98-1.33-2.38
	c-0.92-0.36-1.89-0.57-2.87-0.62C289.77,164.41,287.8,161.85,284.59,162.22z"/>
<path class="st1" d="M221.27,228.54l-3.81,3.46c-0.42,0.38-1.06,0.35-1.44-0.07l-2.41-2.65c-0.38-0.42-0.35-1.06,0.07-1.44
	l3.81-3.46c0.42-0.38,1.06-0.35,1.44,0.07l2.41,2.65C221.72,227.52,221.69,228.16,221.27,228.54z"/>
<path class="st0" d="M244.38,208.25L228.13,223c-0.42,0.38-1.06,0.35-1.44-0.07l-2.41-2.65c-0.38-0.42-0.35-1.06,0.07-1.44
	l16.25-14.75c0.42-0.38,1.06-0.35,1.44,0.07l2.41,2.65C244.83,207.22,244.8,207.87,244.38,208.25z"/>
<path class="st2" d="M305.88,33.58c-0.32,1.15-0.16,2.39,0.44,3.42c0.78,0.88,1.84,1.46,3,1.65c0.45,0.15,0.92,0.2,1.39,0.16
	c1.47-0.22,2.07-2,3-3.1s2.56-1.76,3.38-3c0.65-1.11,0.75-2.45,0.27-3.64c-0.49-1.17-1.29-2.19-2.33-2.92
	c-2-1.49-7.18-3.46-8.93-0.73c-0.72,1.13-0.21,2,0.08,3.15C306.71,30.3,306.22,31.85,305.88,33.58z"/>
<path class="st2" d="M166.74,17.93c-0.8,0.06-1.58,0.27-2.29,0.64c-1.28,0.97-1.76,2.67-1.18,4.16c0.61,1.44,1.61,2.68,2.9,3.57
	c1.32,1,2.93,2,4.58,1.68c2.3-0.44,3.44-3,5.28-4.46c1.44-1.13,3.55-1.86,3.87-3.66c0.11-1.4-0.7-2.7-2-3.22
	C174.19,15,170.34,17.37,166.74,17.93z"/>
<path class="st2" d="M250.27,78.6c0.5,1.49,2.25,2.06,3.71,2.65c1.42,0.58,2.74,1.35,3.94,2.31c0.85,0.79,1.79,1.48,2.79,2.06
	c0.68,0.31,1.4,0.52,2.14,0.61c1.02,0.25,2.09,0.1,3-0.43c0.91-0.74,1.32-1.93,1.07-3.07c-0.27-1.13-0.83-2.16-1.63-3
	c-2.35-2.55-5.41-4.34-8.79-5.13C254.13,74.01,249.15,75.29,250.27,78.6z"/>
<path class="st2" d="M385.8,180.29c0.3-0.55,0.72-1.02,1.22-1.4c0.49-0.42,1.13-0.61,1.77-0.51c0.95,0.4,1.54,1.36,1.46,2.38
	c-0.1,1-0.05,2.01,0.14,3c0.42,1.26,1.71,2.15,1.91,3.47c0.25,1.64-1.35,3-3,3.41s-3.31,0.19-4.92,0.54c-1.39,0.31-2.83,1-4.15,0.52
	c-1.27-0.57-1.83-2.07-1.26-3.33c0.05-0.1,0.1-0.2,0.16-0.3c1-1.35,2.8-2.51,4.11-3.52C384.79,183.4,384.92,181.85,385.8,180.29z"/>
<path class="st2" d="M253.76,273.95c-2.12,0.23-3.76,1.96-3.89,4.09c-0.03,0.49,0.07,0.97,0.29,1.41c0.37,0.6,0.95,1.06,1.62,1.28
	c1.68,0.63,3.57,0.34,5.29,0.86c1.48,0.45,2.83,1.52,4.39,1.45c1.61-0.11,2.89-1.39,3-3c0.08-2.21-2-3.21-3.79-3.8
	C258.42,275.5,256.18,273.75,253.76,273.95z"/>
<path class="st2" d="M387.44,351.49c-1.12-0.56-2.37-0.82-3.63-0.76c-0.51-0.05-1.03,0-1.53,0.14c-1.37,0.5-1.79,2.33-1.34,3.71
	c0.6,1.33,1.4,2.56,2.37,3.64c0.99,1.62,2.06,3.18,3.22,4.69c1.28,1.4,3.22,2.44,5,1.92c0.68-0.24,1.34-0.56,1.95-0.95
	c1.38-0.6,2.69-1.32,3.93-2.17c1.15-1,2-2.59,1.36-4s-2.06-1.87-3.45-2.06c-1.66-0.23-3.06-0.21-4.48-1.15
	S388.75,352.3,387.44,351.49z"/>
<path class="st3" d="M274.34,240.68c-1.84,0.64-2.8,3.23-1.57,4.74c0.58,0.64,1.36,1.08,2.21,1.25c1.84,0.45,3.78,0.23,5.47-0.63
	c0.52-0.27,1-0.6,1.56-0.82c0.75-0.27,1.53-0.43,2.32-0.49c1.73-0.2,3.6-0.38,5.1,0.51s2.27,2.69,2.88,4.36s1.17,3.89-0.05,5.28
	c-0.88,0.8-2,1.28-3.18,1.37l-4,0.75c-1.45,0.27-3.06,0.65-3.87,1.88c-0.71,1.25-0.57,2.81,0.35,3.91c0.92,1.08,2.2,1.79,3.6,2
	c3.36,0.61,6.75-0.67,9.84-2.13s6.18-3.15,9.59-3.41c1.69-0.13,3.57,0,4.88-1c0.92-0.88,1.42-2.11,1.38-3.38
	c0.03-0.27-0.02-0.54-0.13-0.79c-0.15-0.23-0.36-0.42-0.61-0.53c-1.83-1-4.05-0.08-6,0.73s-4.29,1.47-5.91,0.17
	c-0.79-0.76-1.36-1.72-1.65-2.77l-1.56-4.16c-0.49-0.96-0.63-2.05-0.4-3.1c0.46-0.96,1.3-1.68,2.31-2c1.01-0.32,1.98-0.77,2.88-1.32
	c0.5-0.39,0.93-0.86,1.27-1.39c1.5-2.11,1.65-4.9,0.38-7.16c-1.38-2.12-4.69-2.89-6.57-1.2c-0.72,0.83-1.39,1.7-2,2.61
	c-0.76,0.87-1.78,1.47-2.91,1.71c-1.34,0.28-2.77,0-4.05,0.52c-2.22,0.83-3.28,3.38-5.6,4.08
	C278.44,240.74,276.28,240,274.34,240.68z"/>
<path class="st3" d="M331.59,261.31c0.36,1.31,1.65,2.14,3,1.93c0.88-0.35,1.65-0.94,2.22-1.7c1.38-1.41,3.55-2.53,5.27-1.56
	c1.24,0.7,1.73,2.19,2.13,3.55l2,6.92c0.36,0.84,0.36,1.8,0,2.64c-0.59,0.74-1.48,1.18-2.42,1.22c-1.74,0.22-3.46,0.59-5.14,1.12
	c-1.7,0.54-3.13,1.7-4,3.26c-0.34,0.61-0.42,1.33-0.23,2c0.46,1.24,2.05,1.53,3.37,1.61c4.67,0.27,9.33,0.32,14,0.15
	c2.62-0.1,5.67-0.52,7-2.78c1.05-2.07,0.23-4.61-1.84-5.66c-0.29-0.15-0.6-0.26-0.92-0.34c-1.05-0.19-2.16,0-3.2-0.22
	c-2.28-0.58-3.29-3.18-4-5.43l-2.07-7c-0.35-0.82-0.4-1.74-0.14-2.6c0.62-1.4,2.52-1.5,3.91-2.15c2.04-1.02,3.03-3.37,2.34-5.54
	c-0.84-2.12-3.14-3.27-5.34-2.67c-0.93,0.37-1.8,0.87-2.57,1.51c-3,2.12-6.17,3.33-9.33,5
	C333.56,255.85,330.77,258.53,331.59,261.31z"/>
<path class="st0" d="M275.6,285.14l3.81,0.22c0.56,0.03,0.99,0.52,0.96,1.08l-0.11,1.86c-0.03,0.56-0.52,0.99-1.08,0.96l-3.81-0.22
	c-0.56-0.03-0.99-0.52-0.96-1.08l0.11-1.86C274.56,285.53,275.04,285.1,275.6,285.14z"/>
<path class="st0" d="M289.47,283.76l3.81,0.22c0.56,0.03,0.99,0.52,0.96,1.08l-0.11,1.86c-0.03,0.56-0.52,0.99-1.08,0.96l-3.81-0.22
	c-0.56-0.03-0.99-0.52-0.96-1.08l0.11-1.86C288.43,284.15,288.91,283.72,289.47,283.76z"/>
<path class="st0" d="M306.41,283.82l3.81,0.22c0.56,0.03,0.99,0.52,0.96,1.08l-0.11,1.86c-0.03,0.56-0.52,0.99-1.08,0.96l-3.81-0.22
	c-0.56-0.03-0.99-0.52-0.96-1.08l0.11-1.86C305.36,284.22,305.85,283.79,306.41,283.82z"/>
<path class="st0" d="M395.54,192.86l3.09-2.25c0.46-0.33,1.09-0.23,1.42,0.23l1.09,1.5c0.33,0.46,0.23,1.09-0.23,1.42l-3.09,2.25
	c-0.46,0.33-1.09,0.23-1.42-0.23l-1.09-1.5C394.99,193.83,395.09,193.19,395.54,192.86z"/>
<path class="st0" d="M390.99,212.17l3.09-2.25c0.46-0.33,1.09-0.23,1.42,0.23l1.09,1.5c0.33,0.46,0.23,1.09-0.23,1.42l-3.09,2.25
	c-0.46,0.33-1.09,0.23-1.42-0.23l-1.09-1.5C390.44,213.14,390.54,212.51,390.99,212.17z"/>
<path class="st0" d="M371.49,211.37l3.09-2.25c0.46-0.33,1.09-0.23,1.42,0.23l1.09,1.5c0.33,0.46,0.23,1.09-0.23,1.42l-3.09,2.25
	c-0.46,0.33-1.09,0.23-1.42-0.23l-1.09-1.5C370.94,212.34,371.04,211.7,371.49,211.37z"/>
<path class="st0" d="M186.44,267.8l-4.7,1.38c-0.54,0.16-1.11-0.15-1.27-0.69l-0.91-3.1c-0.16-0.54,0.15-1.11,0.69-1.27l4.7-1.38
	c0.54-0.16,1.11,0.15,1.27,0.69l0.91,3.1C187.29,267.08,186.98,267.64,186.44,267.8z"/>
<path class="st0" d="M199.14,273.26l-4.42,2.12c-0.51,0.24-1.12,0.03-1.36-0.48l-1.4-2.91c-0.24-0.51-0.03-1.12,0.48-1.36l4.42-2.12
	c0.51-0.24,1.12-0.03,1.36,0.48l1.4,2.91C199.86,272.41,199.65,273.02,199.14,273.26z"/>
<path class="st0" d="M207.4,269.35l-4.42,2.12c-0.51,0.24-1.12,0.03-1.36-0.48l-1.4-2.91c-0.24-0.51-0.03-1.12,0.48-1.36l4.42-2.12
	c0.51-0.24,1.12-0.03,1.36,0.48l1.4,2.91C208.12,268.5,207.91,269.11,207.4,269.35z"/>
<path class="st0" d="M318.68,189.05l-0.35-3.8c-0.05-0.56,0.36-1.06,0.92-1.11l1.85-0.17c0.56-0.05,1.06,0.36,1.11,0.92l0.35,3.8
	c0.05,0.56-0.36,1.06-0.92,1.11l-1.85,0.17C319.23,190.02,318.73,189.61,318.68,189.05z"/>
<path class="st0" d="M319.16,168.87l-0.34-3.82c-0.05-0.56,0.36-1.06,0.93-1.11l1.86-0.17c0.56-0.05,1.06,0.36,1.11,0.93l0.34,3.82
	c0.05,0.56-0.36,1.06-0.93,1.11l-1.86,0.17C319.71,169.85,319.21,169.44,319.16,168.87z"/>
<path class="st0" d="M309.71,158.83v-3.82c0-0.56,0.46-1.02,1.02-1.02h1.86c0.56,0,1.02,0.46,1.02,1.02v3.82
	c0,0.56-0.46,1.02-1.02,1.02h-1.86C310.17,159.85,309.71,159.39,309.71,158.83z"/>
<path class="st0" d="M325.89,9.52l0.41,2.86c0.08,0.56-0.31,1.07-0.86,1.16l-5.89,0.85c-0.56,0.08-1.07-0.31-1.16-0.86l-0.41-2.86
	c-0.08-0.56,0.31-1.07,0.86-1.16l5.89-0.85C325.29,8.57,325.81,8.96,325.89,9.52z"/>
<path class="st0" d="M311.71,10.26l0.41,2.86c0.08,0.56-0.31,1.07-0.86,1.16l-5.89,0.85c-0.56,0.08-1.07-0.31-1.16-0.86l-0.41-2.86
	c-0.08-0.56,0.31-1.07,0.86-1.16l5.89-0.85C311.11,9.32,311.63,9.7,311.71,10.26z"/>
<path class="st0" d="M294.85,21.65v2.89c0,0.56-0.46,1.02-1.02,1.02h-5.95c-0.56,0-1.02-0.46-1.02-1.02v-2.89
	c0-0.56,0.46-1.02,1.02-1.02h5.95C294.39,20.63,294.85,21.09,294.85,21.65z"/>
<path class="st0" d="M110.66,20.29l-1.96,3.39c-0.28,0.49-0.91,0.66-1.39,0.37l-9.47-5.47c-0.49-0.28-0.66-0.91-0.37-1.39l1.96-3.39
	c0.28-0.49,0.91-0.66,1.39-0.37l9.47,5.47C110.77,19.18,110.94,19.8,110.66,20.29z"/>
<path class="st0" d="M130.69,34.3l-0.85,1.47c-0.28,0.49-0.91,0.66-1.39,0.37l-4.36-2.51c-0.49-0.28-0.66-0.91-0.37-1.39l0.85-1.47
	c0.28-0.49,0.91-0.66,1.39-0.37l4.36,2.51C130.8,33.19,130.97,33.81,130.69,34.3z"/>
<path class="st2" d="M418.06,245.9c-0.73,1.9,0.07,4.08,1.34,5.67c0.61,0.84,1.44,1.49,2.4,1.87c1.45,0.33,2.97,0.21,4.35-0.35
	c0.98-0.23,1.93-0.62,2.8-1.13c0.88-0.53,1.48-1.42,1.63-2.44c0.14-1.57-1.14-2.85-1.79-4.28c-0.33-0.85-0.6-1.72-0.8-2.61
	c-0.11-0.58-0.42-1.1-0.88-1.47C423.47,238.85,419.24,242.85,418.06,245.9z"/>
<path class="st2" d="M458.9,396.4c-0.18,1.34,0.12,2.69,0.84,3.83c1,1.25,2.85,1.4,4.46,1.44c1.11,0.08,2.23-0.01,3.31-0.26
	c1.1-0.26,2.02-1,2.53-2c0.24-0.64,0.35-1.32,0.34-2c0.05-0.82,0.02-1.65-0.1-2.47c-0.44-2.58-3.8-8.84-7-8.2
	C459.44,387.51,458.96,393.45,458.9,396.4z"/>
<path class="st2" d="M471.88,420.7c-0.79-0.21-1.61-0.31-2.43-0.3c-2.32-0.06-4.78,0-6.74,1.26c-2.3,1.47-3.42,4.29-3.66,7
	c-0.25,1.53,0.11,3.1,1,4.37c3,3.58,8.78,1.19,11.41-1.46c1.63-1.64,3.62-3.17,3.77-5.66C475.39,423.62,474.03,421.5,471.88,420.7z"
	/>
<path class="st2" d="M714.34,398.09c-0.19,0.81-0.12,1.67,0.2,2.44c0.66,1.3,2.31,1.72,3.77,1.82c1.54,0.1,3.09,0.01,4.61-0.28
	c0.5-0.07,0.99-0.24,1.44-0.48c1.26-0.97,1.65-2.69,0.94-4.11c-0.73-1.36-1.8-2.51-3.09-3.35c-0.74-0.61-1.55-1.12-2.41-1.53
	C716.34,391.15,714.8,395.32,714.34,398.09z"/>
<path class="st2" d="M540.81,333.37c-0.74,0.91-1.19,2.01-1.3,3.18c-0.29,1.92,0.28,3.87,1.54,5.35c1.32,1.46,3.4,1.95,5.23,1.23
	c0.78-0.41,1.49-0.95,2.09-1.59l0.92-0.87c0.68-0.56,1.23-1.27,1.62-2.06c0.67-1.69-0.28-3.63-1.62-4.87
	C547.19,331.79,542.91,330.96,540.81,333.37z"/>
<path class="st2" d="M630.75,312.06c0.78,1.26,1.89,2.3,3.2,3c1.47,0.99,3.24,1.42,5,1.24c1.78-0.24,3.15-1.71,3.24-3.51
	c-0.12-2.79-4-7.66-6.88-7.8C631.69,304.8,629,308.95,630.75,312.06z"/>
<path class="st2" d="M535.34,221.85c0.44,1.22,1.22,2.29,2.24,3.09c0.72,0.43,1.51,0.7,2.34,0.79c1.34,0.25,2.71,0.15,4-0.29
	c1.31-0.46,2.32-1.53,2.72-2.86c0.24-1.2,0-2.45-0.68-3.47c-0.68-1.01-1.5-1.9-2.45-2.66c-0.93-0.9-2.02-1.61-3.22-2.09
	c-1.27-0.35-2.59-0.47-3.9-0.35c-0.77-0.06-1.53,0.13-2.19,0.53C532.12,216.19,534.59,220.03,535.34,221.85z"/>
<path class="st2" d="M465.75,204.93c-1.24,0.26-2.53,0.2-3.74-0.18c-1.4-0.6-2.22-2-2.94-3.39l-2.18-4.07
	c-0.46-0.75-0.8-1.57-1-2.43c-0.18-0.87,0.07-1.78,0.68-2.43c1.07-1,2.85-0.55,4,0.34s2,2.15,3.29,2.88
	c2.51,1.44,6.14,0.6,8.08,2.73c1,1.06,2.34,4.86,0.94,6c-0.7,0.57-2.13,0.26-3,0.27C468.53,204.68,467.15,204.78,465.75,204.93z"/>
<path class="st2" d="M420.58,165.41c-0.06,0.34,0,0.69,0.16,1c0.15,0.2,0.33,0.36,0.55,0.47c1.42,0.85,3.19,1.07,4.46,2.13
	s1.87,3.06,3.08,4.39c1.71,1.81,4.47,2.12,6.53,0.73c1.97-1.54,2.31-4.39,0.77-6.36l0,0c-1.72-1.94-4.72-1.85-7.12-2.82
	c-2.07-0.84-3.76-2.52-5.92-3.11C421.44,161.41,420.7,164.22,420.58,165.41z"/>
<g>
	<path class="st4" d="M285.01,170.69c-0.71-0.47-1.59-0.65-2.43-0.48c-0.21,0.04-0.41,0.11-0.59,0.22
		c-0.47,0.39-0.75,0.95-0.79,1.56c-0.04,0.21-0.04,0.42,0,0.63c0.07,0.25,0.2,0.48,0.38,0.67c0.84,0.87,1.93,1.46,3.12,1.7
		c0.35,0.1,0.72,0.14,1.09,0.1c0.37-0.04,0.7-0.24,0.9-0.56C287.27,173.47,285.88,171.27,285.01,170.69z"/>
	<g>
		<path class="st4" d="M142.6,169.36c0.08,0.61,0.4,1.16,0.9,1.53c0.2,0.1,0.42,0.16,0.64,0.18c0.23,0.06,0.47,0.06,0.7,0
			c0.21-0.09,0.4-0.22,0.56-0.38c0.31-0.31,0.71-0.53,1.15-0.62c0.17,0,0.33-0.03,0.48-0.1c0.16-0.12,0.24-0.32,0.2-0.51
			c-0.04-0.19-0.11-0.37-0.21-0.53c-0.48-0.87-1.16-3-2.44-2.16c-0.53,0.33-1,0.71-1.54,1C142.49,168.1,142.3,168.8,142.6,169.36z"
			/>
		<path class="st4" d="M252.11,72.03c0.66,0.31,1.44,0.26,2.06-0.13l0.77-0.32c0.23,0.87,1.02,1.47,1.92,1.48
			c0.87,0,1.74,0.18,2.54,0.53c0.22,0.19,0.49,0.33,0.78,0.4c0.22,0.01,0.43-0.07,0.59-0.22c0.38-0.36,0.56-0.89,0.46-1.4
			c-0.1-0.51-0.36-0.97-0.73-1.33c-0.37-0.4-0.85-0.67-1.38-0.79c-0.72-0.14-1.59,0.07-2.07-0.48c-0.18-0.25-0.32-0.53-0.42-0.82
			c-0.49-0.89-1.49-1.37-2.49-1.18C252.72,68.02,250.34,70.76,252.11,72.03z"/>
		<path class="st4" d="M191.14,334.63c-0.68,0.41-1.17,1.08-1.35,1.86c-0.11,0.41-0.07,0.86,0.13,1.24c0.32,0.45,0.85,0.72,1.4,0.7
			c0.54-0.02,1.08-0.12,1.6-0.29c0.98-0.26,1.99-0.44,3-0.53c0.27,0,0.53-0.07,0.77-0.19c0.37-0.3,0.57-0.76,0.55-1.23
			c0.1-0.55-0.1-1.11-0.52-1.48c-0.46-0.17-0.96-0.22-1.45-0.15c-0.43,0-0.75-0.28-1.18-0.34
			C193.09,334.02,192.05,334.17,191.14,334.63z"/>
		<path class="st4" d="M203.34,325.28c0.17,0.61,0.68,1.07,1.3,1.19c0.4,0.11,0.81,0.18,1.22,0.23c0.99,0.28,2.05,0.07,2.85-0.58
			l1.25-0.83c0.27-0.15,0.49-0.37,0.65-0.63c0.19-0.53-0.02-1.12-0.5-1.41c-0.47-0.27-1-0.43-1.55-0.46l-1.74-0.23
			c-0.81-0.19-1.66-0.06-2.37,0.37C203.77,323.53,203.37,324.38,203.34,325.28z"/>
		<path class="st4" d="M7.02,50.85c-0.43-0.07-0.87-0.03-1.28,0.13c-0.52,0.27-0.95,0.68-1.25,1.18c-0.41,0.47-0.66,1.06-0.71,1.69
			c0.12,0.81,0.57,1.53,1.24,2c0.88,0.75,1.76,1.47,2.65,2.18c1.39,1.08,3,2.13,4.71,2.12c0.27,0.01,0.55-0.03,0.81-0.11
			c0.58-0.26,1.08-0.67,1.45-1.19c0.51-0.47,0.86-1.09,1-1.77c-0.02-0.87-0.52-1.66-1.3-2.06c-0.77-0.4-1.57-0.73-2.4-1
			C10.09,53.28,9.16,51.12,7.02,50.85z"/>
		<path class="st4" d="M99.95,60.67c-0.37-1.18-0.88-2.31-1.53-3.36c-0.22-0.67-0.88-1.09-1.58-1c-0.53-0.03-1.07,0.02-1.58,0.16
			c-0.51,0.13-0.93,0.51-1.13,1c-0.25,0.86,0.44,1.66,0.89,2.43c0.41,0.71,0.65,1.51,0.68,2.33c0,0.94-0.21,1.88-0.2,2.83
			c-0.07,0.96,0.37,1.89,1.16,2.44c0.68,0.28,1.44,0.35,2.16,0.18c0.11,0,0.22-0.03,0.31-0.09c0.13-0.12,0.2-0.29,0.2-0.47
			c0.13-1.03,0.33-2.06,0.6-3.06C100.11,62.94,100.11,61.79,99.95,60.67z"/>
		<path class="st4" d="M109.8,54.36l3,3.77c0.22,0.32,0.51,0.59,0.84,0.8c0.79,0.27,1.66,0.16,2.36-0.29
			c0.69-0.18,1.21-0.74,1.34-1.44c-0.06-0.41-0.26-0.79-0.56-1.07l-2.53-3c-0.85-1-2.43-3.45-4-2.89
			C108.25,50.93,108.86,53.17,109.8,54.36z"/>
		<path class="st4" d="M214.2,113.97c-0.82-0.44-1.78-0.55-2.68-0.29c-0.9,0.27-1.6,0.98-1.87,1.88c-0.15,1.25,0.21,2.52,1,3.5
			c0.62,1.07,1.39,2.04,2.28,2.9c2.46,2.19,5.95,2.8,9,1.57c0.28-0.09,0.52-0.26,0.69-0.49c0.11-0.2,0.16-0.42,0.16-0.64
			c0.03-0.71-0.1-1.42-0.37-2.07c-0.11-0.31-0.3-0.58-0.55-0.8c-0.89-0.7-2.14,0.06-3.26,0.23c-0.97,0.14-1.95-0.2-2.62-0.92
			C214.42,117.22,216.34,115.08,214.2,113.97z"/>
		<path class="st4" d="M194.59,139.3c-0.47,0.93-0.69,1.96-0.65,3c-0.01,0.4,0.04,0.81,0.17,1.19c0.22,0.51,0.59,0.95,1.06,1.25
			c1.16,0.78,2.61,0.96,3.93,0.5c0.87-0.31,1.62-0.9,2.51-1.15c1.74-0.49,3.77,0.36,5.36-0.51c1.12-0.68,1.7-1.99,1.44-3.28
			c-0.29-1.27-1.19-2.31-2.4-2.78c-1.09-0.37-2.25-0.5-3.39-0.39C200.21,137.25,195.93,136.85,194.59,139.3z"/>
		<path class="st4" d="M162.25,126.35c-0.87-0.29-1.83-0.2-2.63,0.26c-0.44,0.41-0.73,0.98-0.79,1.58c-0.21,0.9-0.05,1.85,0.44,2.63
			c0.94,1.31,3,1.33,4.39,0.49c0.4-0.36,0.93-0.55,1.47-0.51c0.91,0.24,0.83,1.66,1.55,2.26c1,0.86,2.77-0.57,3.93,0.14
			c0.44,0.4,0.82,0.88,1.11,1.4c0.76,0.91,2.11,1.04,3.03,0.28c0.55-0.46,0.84-1.17,0.76-1.89c-0.15-1.48-1.68-2.35-3-3
			C169.27,128.33,165.82,127.1,162.25,126.35z"/>
		<path class="st4" d="M107.68,116.22c-0.42,0.76-0.26,1.71,0.38,2.3c0.55,0.58,1.31,0.91,2.11,0.93c0.2,0.01,0.4-0.02,0.59-0.1
			c0.42-0.37,0.78-0.81,1.07-1.29c0.29-0.17,0.53-0.42,0.7-0.71c0.03-0.14,0.03-0.27,0-0.41c0-0.56-0.14-1.12-0.4-1.62
			C111.02,113.5,108.58,114.95,107.68,116.22z"/>
		<path class="st4" d="M113.46,120.98c-0.04,0.34,0.01,0.69,0.15,1c0.42,0.56,1.05,0.92,1.75,1c0.16,0.05,0.32,0.07,0.49,0.07
			c0.37-0.1,0.72-0.29,1-0.55c0.51-0.2,0.98-0.49,1.38-0.86c0.3-0.65,0.23-1.41-0.18-2c-0.23-0.59-0.64-1.09-1.16-1.44
			C115,117.28,113.6,119.31,113.46,120.98z"/>
		<path class="st4" d="M126.76,138.79c0.13,0.27,0.32,0.51,0.55,0.71c0.51,0.32,1.15,0.37,1.69,0.11c0.49-0.19,0.9-0.54,1.16-1
			c0.63-1.13-0.35-3.22-1.74-3.18C126.57,135.51,125.99,137.4,126.76,138.79z"/>
		<path class="st4" d="M158.28,147.42c0.59,0.59,1.29,1.06,2.06,1.37c0.65,0.53,1.61,0.43,2.14-0.22c0.01-0.01,0.01-0.02,0.02-0.03
			l0.87-0.81c0.12-0.1,0.23-0.23,0.31-0.37c0.14-0.58-0.15-1.18-0.68-1.44c-0.35-0.27-0.75-0.48-1.17-0.61
			c-0.28-0.08-0.57-0.11-0.85-0.2c-0.53-0.16-1-0.52-1.51-0.67C157.45,143.85,157.34,146.33,158.28,147.42z"/>
		<path class="st4" d="M163.22,152.58c0.57,0.59,1.21,1.12,1.89,1.58c0.72,0.43,1.65,0.3,2.23-0.31c0.18-0.28,0.3-0.6,0.34-0.93
			c0.32-1.71-0.72-3.85-2.76-3.75C163.26,149.29,161.76,151.36,163.22,152.58z"/>
		<path class="st4" d="M152.15,242.57c-0.13,0.68,0.7,1.09,1.32,1.38c1.75,0.85,2.95,2.54,3.16,4.48c-0.07,0.62,0.16,1.24,0.61,1.67
			c0.34,0.16,0.73,0.19,1.1,0.1c0.79-0.11,1.59-0.25,2.38-0.4c0.16-0.02,0.32-0.08,0.45-0.18c0.15-0.19,0.22-0.43,0.18-0.67
			c-0.07-1.67-0.69-3.27-1.76-4.56c-0.72-0.69-1.39-1.44-2-2.23c-0.44-0.73-0.53-1.9-1.38-2.3
			C154.95,239.24,152.34,241.37,152.15,242.57z"/>
		<path class="st4" d="M184.03,356.19c0.03,0.44,0.26,0.85,0.62,1.11c0.23,0.09,0.47,0.12,0.71,0.1l2.15-0.07
			c0.76,0.06,1.52-0.14,2.15-0.56c0.3-0.25,0.53-0.56,0.68-0.92c0.35-0.68,0.29-1.5-0.17-2.12c-0.53-0.39-1.19-0.56-1.84-0.46
			l-3.08,0.07C183.07,353.37,183.65,354.5,184.03,356.19z"/>
		<path class="st4" d="M186.93,371.27c0.37,0.09,0.73,0.23,1.07,0.41c0.34,0.19,0.57,0.54,0.6,0.93c0,0.74-0.94,1.23-0.93,2
			c-0.97,0.15-1.97-0.07-2.79-0.61c-0.42-0.28-0.78-0.63-1.21-0.9c-0.76-0.31-1.44-0.77-2-1.36c-0.32-0.52-0.32-1.19,0-1.71
			C182.91,367.97,185.46,370.85,186.93,371.27z"/>
		<path class="st4" d="M348.65,480.25c-0.58,0.03-1.15,0.19-1.67,0.46c-0.84,0.77-0.9,2.08-0.13,2.92c0.02,0.03,0.05,0.05,0.07,0.08
			c0.86,0.76,1.99,1.16,3.14,1.12c1.14-0.05,2.28,0.01,3.41,0.17c0.85,0.26,1.68,0.59,2.47,1c0.8,0.39,1.67,0.59,2.56,0.57
			c0.9-0.03,1.71-0.57,2.08-1.4c0.13-0.42,0.17-0.86,0.1-1.3c0-0.33-0.12-0.64-0.34-0.89c-0.22-0.17-0.48-0.27-0.75-0.29
			c-1.1-0.19-2.22-0.25-3.33-0.18c-0.4,0.06-0.8,0.03-1.19-0.07c-0.4-0.11-0.67-0.49-0.65-0.9c0.1-0.71,1.16-0.76,1.64-1.29
			c0.36-0.48,0.36-1.14,0-1.62c-0.36-0.46-0.82-0.84-1.35-1.09c-1.36-0.76-1.7,0.06-2.54,0.91
			C351.21,479.4,349.98,480.03,348.65,480.25z"/>
		<path class="st4" d="M395.62,476.05c-0.63-0.37-1.3-0.66-2-0.87c-0.72-0.2-1.48-0.12-2.15,0.21c-1.06,0.6-1.42,1.93-1.69,3.12
			c-0.03,0.15-0.03,0.31,0,0.46c0.08,0.27,0.27,0.49,0.51,0.63c2.04,1.42,4.37,2.38,6.82,2.81c2.45,0.43,4.93,0.55,7.41,0.37
			c0.4,0.01,0.8-0.08,1.16-0.24c0.56-0.35,0.9-0.98,0.89-1.64c-0.02-0.65-0.15-1.3-0.4-1.9c-0.07-0.26-0.2-0.51-0.36-0.73
			c-0.43-0.4-1.02-0.58-1.6-0.5c-1.05,0-2.08,0.36-3.13,0.47c-0.98,0.19-1.99-0.02-2.81-0.58
			C397.45,477.02,396.56,476.48,395.62,476.05z"/>
		<path class="st4" d="M409.78,474.3c-0.43,0.49-0.76,1.05-1,1.65c-0.23,0.61-0.12,1.3,0.27,1.82c0.35,0.31,0.73,0.57,1.15,0.78
			c0.76,0.5,1.4,1.36,2.32,1.35c0.54-0.04,1.04-0.32,1.37-0.76c0.32-0.43,0.6-0.9,0.84-1.38c1.12-1.71,2.46-3.26,4-4.6
			c0.61-0.5,1.06-1.16,1.31-1.91c0.15-0.76-0.03-1.54-0.48-2.16c-0.45-0.61-1.03-1.13-1.69-1.51c-0.49-0.37-1.09-0.56-1.71-0.54
			c-0.76,0.22-1.41,0.74-1.79,1.43c-0.65,0.89-1.36,1.62-2.09,2.44C411.39,471.96,410.61,473.18,409.78,474.3z"/>
		<path class="st4" d="M388.17,465.8c-0.27,0.33-0.41,0.74-0.41,1.16c0.13,0.48,0.43,0.88,0.85,1.14l1.37,1.1
			c0.39,0.39,0.9,0.63,1.44,0.69c0.85,0,1.4-0.84,1.9-1.53c1.17-1.41,2.52-2.66,4-3.73c1.27-0.87,2.25-2.1,2.81-3.53
			c0.52-1.78-0.22-3.66-1-5.33c-0.17-0.45-0.48-0.84-0.88-1.1c-0.36-0.15-0.76-0.19-1.14-0.13c-0.53,0.04-1.05,0.1-1.57,0.17
			c-0.21,0.02-0.42,0.07-0.62,0.16c-0.56,0.38-0.87,1.04-0.78,1.71c0.09,0.66,0.09,1.34,0,2c-0.13,0.41-0.32,0.79-0.56,1.14
			c-0.72,1.27-1.61,2.44-2.63,3.49c-0.43,0.34-0.88,0.64-1.36,0.89C389.02,464.57,388.53,465.15,388.17,465.8z"/>
		<path class="st4" d="M168.53,294.85c0.04,0.61,0.13,1.23,0.25,1.83c0.03,0.14,0.1,0.28,0.2,0.38c0.13,0.09,0.27,0.15,0.43,0.16
			c0.76,0.21,1.58,0.07,2.23-0.39c0.18-0.08,0.33-0.2,0.45-0.35c0.07-0.11,0.1-0.24,0.11-0.37c-0.02-0.56-0.21-1.11-0.54-1.56
			l-0.9-1.52c-0.19-0.42-0.51-0.77-0.91-1c-0.58-0.23-1.8-0.07-1.94,0.66S168.45,294.28,168.53,294.85z"/>
		<path class="st4" d="M171.23,306.29c-0.18,0.51-0.14,1.08,0.11,1.56c0.35,0.47,0.93,0.72,1.51,0.65c0.23-0.01,0.46-0.08,0.65-0.21
			c0.24-0.21,0.43-0.47,0.54-0.77l0.75-1.61c0.08-0.14,0.12-0.29,0.13-0.45c-0.01-0.18-0.09-0.36-0.22-0.49
			c-0.12-0.14-0.27-0.26-0.44-0.34c-0.29-0.12-0.6-0.19-0.91-0.2c-0.46-0.16-0.96-0.11-1.37,0.15
			C171.58,305.07,171.32,305.66,171.23,306.29z"/>
		<path class="st4" d="M158.03,282.72c-0.36-0.28-0.81-0.42-1.26-0.41c-1.17-0.01-2.18,0.8-2.43,1.94
			c-0.04,0.22-0.02,0.45,0.07,0.66c0.07,0.12,0.15,0.23,0.25,0.33c0.34,0.4,0.77,0.72,1.25,0.93
			C157.63,286.85,159.64,284.01,158.03,282.72z"/>
		<path class="st4" d="M163.94,273.33c0.34,0.45,0.83,0.77,1.38,0.89c0.44,0.16,0.91,0.24,1.38,0.24c0.16,0,0.32-0.04,0.47-0.11
			c0.15-0.1,0.28-0.23,0.38-0.38c0.39-0.38,0.59-0.92,0.53-1.47c-0.07-0.19-0.17-0.37-0.3-0.53l-0.57-0.79
			c-0.15-0.24-0.36-0.45-0.6-0.6c-0.98-0.51-2.19-0.13-2.7,0.85C163.6,272.03,163.61,272.74,163.94,273.33z"/>
		<path class="st4" d="M293.82,171.97c-0.46,0.75-0.35,1.71,0.27,2.33c0.18,0.14,0.38,0.25,0.59,0.33c0.54,0.29,1.15,0.43,1.77,0.4
			c0.72-0.17,1.38-0.55,1.88-1.1c0.33-0.26,0.61-0.57,0.84-0.92c0.23-0.34,0.29-0.77,0.17-1.16c-0.09-0.19-0.21-0.36-0.36-0.5
			c-0.78-0.74-1.84-1.12-2.91-1.05C295.1,170.48,294.27,171.1,293.82,171.97z"/>
		<path class="st4" d="M290.17,162.99c0.22,0.15,0.46,0.26,0.72,0.32l1.28,0.38c0.59,0.24,1.24,0.3,1.86,0.16
			c0.37-0.14,0.69-0.38,0.93-0.7c0.25-0.27,0.39-0.63,0.39-1c-0.11-0.49-0.44-0.91-0.9-1.12c-0.91-0.54-3-1.43-4-0.82
			C289.64,160.92,289.52,162.13,290.17,162.99z"/>
		<path class="st4" d="M307.74,210.48c-0.87,0.67-1.83,1.53-1.78,2.63c0.04,0.44,0.2,0.86,0.47,1.21c0.63,0.85,1.63,1.34,2.69,1.33
			c1.8,0,3.3-1.51,5.09-1.68c0.27,0,0.53-0.05,0.78-0.16c0.24-0.17,0.42-0.42,0.51-0.71c0.4-1.03,0.5-2.15,0.28-3.23
			c-0.06-0.38-0.21-0.75-0.42-1.07c-0.71-0.73-1.7-1.12-2.72-1.05c-0.63-0.07-1.26-0.02-1.87,0.14
			C309.66,208.23,308.66,209.76,307.74,210.48z"/>
		<path class="st4" d="M377.69,182.21c-0.38,0.39-0.67,0.86-0.86,1.37c-0.05,0.2-0.05,0.4,0,0.6c0.07,0.23,0.19,0.43,0.35,0.61
			c0.32,0.56,0.91,0.91,1.55,0.93c0.31-0.08,0.59-0.23,0.82-0.44l1.79-1.43c0.76-0.47,1.34-1.17,1.66-2
			c0.2-0.81-0.13-1.66-0.84-2.11C380.34,178.62,378.69,181.03,377.69,182.21z"/>
		<path class="st4" d="M392.44,181.9c-0.17,0.35-0.25,0.73-0.23,1.12c-0.01,0.26,0.02,0.53,0.11,0.78c0.22,0.46,0.61,0.82,1.08,1
			c0.56,0.31,1.23,0.34,1.81,0.07c0.37-0.25,0.6-0.66,0.63-1.11c0.02-0.44-0.08-0.88-0.3-1.27c-0.1-0.2-0.23-0.38-0.4-0.53
			c-0.23-0.17-0.48-0.29-0.75-0.37C394.01,181.44,392.44,180.91,392.44,181.9z"/>
		<path class="st4" d="M301.6,274.22c-0.37,1.23,0.2,2.55,1.34,3.13c1.15,0.53,2.48,0.47,3.58-0.16c0.73-0.39,1.35-1,2.1-1.31
			c0.59-0.28,1.24-0.42,1.89-0.42c1.12,0,2.2,0.45,3.32,0.44c0.78,0.01,1.53-0.26,2.13-0.75c0.6-0.51,0.9-1.29,0.79-2.07
			c-0.32-1.17-1.37-1.98-2.58-2c-2.45-0.17-4.6,1.5-7.1,1.37C305.21,272.38,302.43,272,301.6,274.22z"/>
		<path class="st4" d="M260.24,270.54c-0.72-0.12-1.46,0.03-2.07,0.43c-0.61,0.43-0.81,1.25-0.47,1.91
			c0.22,0.29,0.51,0.52,0.84,0.67c0.72,0.4,1.47,0.77,2.23,1.1c0.36,0.18,0.75,0.29,1.15,0.35c0.4,0.05,0.81-0.06,1.13-0.32
			c0.29-0.38,0.54-0.8,0.72-1.24c0.34-0.34,0.57-0.78,0.65-1.25C264.34,270.85,261.18,270.64,260.24,270.54z"/>
		<path class="st4" d="M254.74,283.32c-0.26-0.01-0.53,0.06-0.76,0.18c-0.43,0.39-0.63,0.98-0.53,1.55c0,0.19,0.03,0.38,0.1,0.55
			c0.09,0.18,0.24,0.33,0.41,0.43c0.56,0.31,1.18,0.49,1.82,0.53c0.43,0.08,0.87,0.1,1.3,0.07c0.44-0.03,0.86-0.22,1.17-0.53
			c0.28-0.31,0.4-0.73,0.33-1.14C258.34,283.42,255.96,283.26,254.74,283.32z"/>
		<path class="st4" d="M340.98,291.85c-0.87-0.25-1.8-0.19-2.62,0.18c-0.63,0.26-1.15,0.75-1.45,1.37c-0.29,0.63-0.22,1.37,0.2,1.93
			c0.61,0.56,1.42,0.85,2.25,0.79c0.82-0.06,1.65,0.12,2.37,0.52c0.38,0.4,0.8,0.76,1.26,1.07c0.22,0.09,0.46,0.13,0.7,0.12
			c0.89,0.03,1.69-0.56,1.93-1.42c0.05-0.53-0.08-1.05-0.36-1.5C344.29,293.37,342.75,292.27,340.98,291.85z"/>
		<path class="st4" d="M354.97,298.45c-0.28,1.49,0.7,2.92,2.19,3.2c0.62,0.11,1.26,0.01,1.81-0.29c0.86-0.47,1.64-1.44,2.58-1.16
			s1.08,1.33,1.36,2.18c0.3,1.26,1.38,2.18,2.67,2.29c0.98-0.15,1.86-0.67,2.47-1.45c0.38-0.34,0.67-0.77,0.84-1.25
			c0.09-0.98-0.28-1.95-1-2.62c-1.14-1.53-2.55-2.83-4.16-3.84C361.02,294.01,355.66,294.85,354.97,298.45z"/>
		<path class="st4" d="M382.8,292.33c-0.27,1.47-0.24,2.98,0.11,4.44c0.38,1.49,1.52,2.66,3,3.08c1.38,0.19,2.77-0.21,3.84-1.09
			c0.22-0.14,0.41-0.33,0.56-0.55c0.43-0.73-0.13-1.63-0.71-2.24c-0.4-0.29-0.61-0.78-0.54-1.27c0.11-0.21,0.26-0.4,0.44-0.55
			c0.56-0.64,0.63-1.57,0.17-2.29c-0.32-0.33-0.57-0.71-0.74-1.13c0-0.52,0.16-1.04,0.47-1.46c0.79-1.87-0.09-4.03-1.96-4.82
			c-0.1-0.04-0.2-0.08-0.3-0.11c-0.53-0.17-1.11-0.11-1.6,0.17c-0.33,0.27-0.59,0.61-0.76,1c-0.64,0.9-1.17,1.87-1.56,2.9
			C382.89,289.59,382.96,291.08,382.8,292.33z"/>
		<path class="st4" d="M391.34,344.2c-0.11,0.82,0.2,1.64,0.82,2.19c0.3,0.2,0.64,0.32,1,0.37c0.32,0.06,0.65,0.04,0.95-0.08
			c0.74-0.33,0.85-1.32,0.84-2.14c0.3-0.05,0.6,0.02,0.85,0.2c0.3,0.03,0.59-0.08,0.8-0.29c1.35-1.14,1.52-3.17,0.38-4.52
			c-0.28-0.34-0.64-0.61-1.03-0.81c-0.31-0.16-0.65-0.25-1-0.25C392.95,338.96,391.4,342.53,391.34,344.2z"/>
		<path class="st4" d="M350.08,189.92c-0.71,0.8-1.16,1.8-1.29,2.87c0.81,0.58,1.84,0.73,2.78,0.42c0.93-0.32,1.75-0.88,2.37-1.64
			c0.58-0.66,1.06-1.65,0.56-2.38c-0.56-0.57-1.39-0.79-2.16-0.58c-0.62-0.03-1.2,0.31-1.49,0.86"/>
		<path class="st4" d="M317.18,99.68c-0.26,0.68-0.04,1.45,0.54,1.9c0.19,0.13,0.4,0.21,0.59,0.33c0.37,0.33,0.7,0.7,1,1.09
			c0.33,0.4,0.91,0.51,1.36,0.25c0.27-0.41,0.45-0.87,0.54-1.35c0.34-0.33,0.58-0.76,0.66-1.23c-0.05-0.17-0.14-0.33-0.26-0.46
			c-0.34-0.45-0.74-0.87-1.17-1.24C319.34,98.05,317.75,98.09,317.18,99.68z"/>
		<path class="st4" d="M296.34,52.27c-0.65,0.59-1.52,1.12-1.61,2c0.05,0.83,0.46,1.6,1.14,2.09l1,1c0.15,0.17,0.34,0.3,0.55,0.38
			c0.52,0.02,1.01-0.26,1.25-0.72l3.78-4.78c0.51-0.55,0.89-1.22,1.1-1.94c0.1-0.67,0.05-1.35-0.13-2c-0.05-0.6-0.32-1.16-0.76-1.58
			c-0.28-0.18-0.6-0.29-0.93-0.33c-0.66-0.12-1.33-0.16-2-0.14c-0.24,0-0.48,0.04-0.7,0.13c-1,0.45-0.78,1.95-0.94,2.8
			C297.86,50.37,297.25,51.46,296.34,52.27z"/>
		<path class="st4" d="M313.86,40.08c0.3,0.66,0.82,1.18,1.48,1.48c0.24,0.13,0.52,0.18,0.79,0.14c0.26-0.09,0.49-0.24,0.67-0.45
			l1.54-1.51c0.4-0.38,0.78-0.78,1.13-1.2c1.37-1.69-1.31-3.53-2.9-2.8S313.06,38.22,313.86,40.08z"/>
		<path class="st4" d="M304.89,31.45c0.11-0.39,0.17-0.79,0.17-1.2c0-0.41-0.16-0.8-0.44-1.1c-0.48-0.35-1.08-0.51-1.67-0.44h-1.77
			c-0.07-0.02-0.14-0.02-0.21,0c-0.11,0.07-0.18,0.18-0.21,0.31c-0.15,0.37-0.23,0.77-0.23,1.17c0.16,0.65,0.44,1.26,0.82,1.81
			c0.22,0.46,0.34,1,0.58,1.4c0.21,0.47,0.65,0.8,1.16,0.87c0.39,0,0.76-0.18,1-0.49C304.53,33.07,304.8,32.28,304.89,31.45z"/>
		<path class="st4" d="M177.13,25.64c-0.7,0.32-1.29,0.84-1.7,1.49c-0.1,0.22-0.14,0.48-0.09,0.72c0.06,0.23,0.18,0.43,0.33,0.61
			c0.36,0.46,0.76,0.89,1.19,1.28c0.18,0.19,0.4,0.32,0.65,0.39c0.42,0.04,0.83-0.14,1.09-0.48c0.28-0.31,0.47-0.69,0.76-1
			c0.42-0.35,0.89-0.64,1.39-0.87c0.5-0.23,0.9-0.65,1.09-1.17c0.07-0.86-0.31-1.7-1-2.22c-0.23-0.32-0.61-0.5-1-0.48
			c-0.35,0.18-0.67,0.42-0.94,0.72C178.34,25.02,177.7,25.32,177.13,25.64z"/>
		<path class="st4" d="M162.66,25.66c-0.3-0.62-0.83-1.09-1.48-1.33c-0.57-0.02-1.12,0.16-1.56,0.52c-0.21,0.1-0.38,0.28-0.47,0.5
			c-0.01,0.32,0.14,0.62,0.39,0.81l0.92,0.92c0.64,0.68,1.34,1.31,2.08,1.89c0.71,0.52,2.4,0.71,2.4-0.64
			C164.94,27.52,163.16,26.37,162.66,25.66z"/>
		<path class="st4" d="M165.83,16.3c0.04,0.08,0.09,0.14,0.16,0.19c0.09,0.02,0.17,0.02,0.26,0h0.61c0.2,0.02,0.41,0,0.6-0.06
			c0.17-0.08,0.34-0.18,0.49-0.3c0.77-0.42,1.64-0.64,2.52-0.63c0.21,0.01,0.42-0.07,0.57-0.23c0.05-0.09,0.08-0.19,0.09-0.29
			c0.09-0.44,0.11-0.9,0.07-1.35c-0.04-0.46-0.27-0.87-0.64-1.15c-0.46-0.24-0.99-0.32-1.5-0.24
			C166.85,12.41,164.34,13.71,165.83,16.3z"/>
		<path class="st4" d="M190.49,12.42c-0.03,0.46,0.09,0.92,0.33,1.32c0.56,0.62,1.42,0.88,2.23,0.68c0.79-0.2,1.59-0.36,2.4-0.46
			c0.37,0.06,0.74,0.02,1.09-0.11c0.31-0.24,0.52-0.6,0.56-1c0.05-0.23,0.05-0.48,0-0.71c-0.05-0.2-0.14-0.39-0.27-0.56
			C195.34,9.34,190.5,8.99,190.49,12.42z"/>
		<path class="st4" d="M207.04,26.45c-0.39,0.19-0.75,0.45-1.05,0.77l-1.28,1.2c-0.18,0.14-0.31,0.33-0.38,0.54
			c-0.03,0.44,0.24,0.85,0.65,1c0.8,0.44,1.71,0.62,2.61,0.52c0.6-0.2,1.26-0.13,1.8,0.19c0.33,0.32,0.36,0.86,0.67,1.21
			c0.29,0.28,0.7,0.4,1.1,0.33c0.39-0.08,0.77-0.22,1.12-0.42l1.11-0.56c0.18-0.07,0.34-0.18,0.46-0.33c0.15-0.26,0.15-0.57,0-0.83
			c-0.16-0.25-0.36-0.46-0.6-0.63C211.85,28.26,209.07,25.62,207.04,26.45z"/>
		<path class="st4" d="M220.57,13.34c-0.13,0.22-0.2,0.47-0.22,0.73c0.01,0.36,0.19,0.7,0.48,0.91c0.3,0.21,0.64,0.34,1,0.38
			c0.34,0.06,0.68,0.03,1-0.1c0.18-0.1,0.35-0.22,0.51-0.35c0.64-0.39,1.34-0.68,2.07-0.87c0.13-0.03,0.25-0.1,0.36-0.18
			c0.09-0.09,0.16-0.19,0.2-0.31c0.33-1.02-0.2-2.11-1.2-2.49c-0.22-0.06-0.45-0.09-0.68-0.1
			C222.34,10.85,221.34,11.85,220.57,13.34z"/>
		<path class="st4" d="M224.22,15.97c-0.8,0.1-1.53,0.53-2,1.18c-0.19,0.73-0.02,1.51,0.44,2.1c0.3,0.67,0.8,1.23,1.44,1.6
			c0.68,0.24,1.42,0.24,2.1,0c1.42-0.37,2.76-0.96,4-1.75c0.92-0.43,1.54-1.31,1.64-2.32c-0.13-0.72-0.52-1.37-1.09-1.83
			c-0.36-0.37-0.76-0.7-1.18-1c-0.33-0.26-0.73-0.41-1.15-0.45c-0.76,0-1.2,0.73-1.72,1.16C225.96,15.25,225.12,15.69,224.22,15.97z
			"/>
		<path class="st4" d="M191.34,45.57c-0.82-0.08-1.61-0.35-2.32-0.77c-0.71-0.45-1.05-1.31-0.83-2.13c0.18-0.39,0.45-0.73,0.78-1
			l3.75-3.51c0.41-0.48,0.98-0.8,1.61-0.89c0.41,0.02,0.8,0.16,1.13,0.41c1.84,1.2,2.95,3.53,5.07,4.11
			c0.69,0.15,1.41,0.19,2.11,0.11c4.17-0.31,8.45-1.49,12.46-0.29c3.48,1,6.25,3.73,9.64,5c2.67,1,5.8,1.2,7.89,3.15
			c1.17,1.26,2.05,2.76,2.57,4.39c0.38,1,0.68,2.27-0.16,2.89c-0.44,0.26-0.95,0.37-1.45,0.32l-8,0.06c-0.4,0.03-0.8-0.02-1.18-0.16
			c-0.42-0.23-0.77-0.58-1-1c-0.45-0.84-1-1.62-1.63-2.33c-0.66-0.72-1.69-0.97-2.61-0.64c-0.33,0.19-0.63,0.41-0.91,0.67
			c-1.56,1.05-3.41,1.58-5.28,1.5c-0.87,0.06-1.74-0.02-2.58-0.23c-1.4-0.57-2.68-1.42-3.74-2.5c-2.37-1.95-5-3.56-7.82-4.79
			c-0.94-0.43-1.82-1.06-2.78-1.43C194.52,46.05,192.94,45.74,191.34,45.57z"/>
		<path class="st4" d="M533.5,221.93c-0.17-0.92-0.6-1.77-1.22-2.47c-0.75-0.57-1.75-0.68-2.61-0.31c-0.55,0.19-1,0.6-1.23,1.14
			c-0.37,1,0.47,2.06,0.93,3.06c0.2,0.44,0.33,0.91,0.54,1.35c0.55,1.36,2.09,2.01,3.45,1.47c0.12-0.05,0.23-0.1,0.34-0.17
			C535.34,224.85,533.96,223.34,533.5,221.93z"/>
		<path class="st4" d="M513.94,274.37c-0.17,1.18-0.21,2.37-0.12,3.55c0.1,1.2,0.66,2.31,1.57,3.09c0.95,0.77,2.3,0.81,3.29,0.08
			c1.23-1.05,0.93-3,1.67-4.47c0.61-0.93,1.39-1.74,2.29-2.39c1.41-0.8,1.91-2.59,1.11-4.01c-0.16-0.28-0.36-0.53-0.6-0.74
			c-0.85-1.1-1.98-1.94-3.27-2.44C515.05,265.41,514.25,271,513.94,274.37z"/>
		<path class="st4" d="M544.49,266.44c0.17,1.52,0.73,3.12,0.13,4.53c-0.25,0.51-0.57,0.99-0.94,1.43
			c-0.89,1.18-1.62,2.46-2.18,3.82c-0.47,0.92-0.61,1.99-0.37,3c0.51,1.11,1.51,1.92,2.7,2.18c2.37,0.71,4.93,0.34,7-1
			c0.51-0.32,0.95-0.73,1.3-1.22c0.4-0.66,0.64-1.42,0.68-2.19c0.21-2.11-0.27-4.32,0.48-6.31c0.41-1.08,1.17-2.06,1.24-3.22
			c0.08-1.36-0.82-2.56-1.67-3.62c-0.76-1.04-1.66-1.96-2.69-2.73C546.06,258.35,544.08,262.73,544.49,266.44z"/>
		<path class="st4" d="M459.28,188.33c-0.57,0.2-0.93,0.75-0.88,1.35c0.16,0.9,1.32,1.09,2.18,1.4c2.13,0.75,3.41,3.22,5.63,3.67
			c1.17,0.24,2.45-0.14,3.55,0.31c0.48,0.19,0.88,0.53,1.36,0.72c0.47,0.24,1.03,0.17,1.43-0.18c0.29-0.41,0.29-0.96,0-1.37
			c-0.28-0.38-0.62-0.72-1-1c-0.55-0.44-1.02-0.99-1.37-1.61c-0.31-0.58-0.47-1.24-0.75-1.83c-0.24-0.62-0.74-1.11-1.37-1.34
			c-1.42-0.38-3,0.81-4.54,0.55C462.14,188.75,460.69,187.78,459.28,188.33z"/>
		<path class="st4" d="M462.4,385.22c0.14-0.22,0.22-0.46,0.24-0.72c0.06-1.24-0.56-2.42-1.62-3.08c-0.36-0.27-0.8-0.43-1.25-0.46
			c-0.53,0.03-1.05,0.2-1.5,0.48l-1.18,0.6c-0.45,0.21-0.88,0.47-1.27,0.78c-1.48,1.28-2.87,6.16,0.25,6.2c1.21,0,1.94-1,2.78-1.7
			S461.73,386.16,462.4,385.22z"/>
		<path class="st4" d="M647.59,313.39c0.22-0.1,0.42-0.25,0.57-0.45c0.12-0.2,0.19-0.43,0.2-0.66c0.25-2.07-2.81-8.29-4.82-5
			C641.99,309.85,644.04,315.21,647.59,313.39z"/>
		<path class="st4" d="M641.68,396.41c0.44,0.37,0.94,0.64,1.49,0.81c1.84,0.63,3.85,0.63,5.69,0c0.35-0.09,0.67-0.28,0.92-0.55
			c0.23-0.34,0.34-0.75,0.34-1.16c0.21-1.12-0.09-2.27-0.82-3.14C646.49,389.79,637.01,392.22,641.68,396.41z"/>
		<path class="st4" d="M534.78,427.1c-0.35,0.46-0.62,0.97-0.8,1.52c-0.68,1.45-1.05,3.03-1.08,4.64c0.01,1.64,1.04,3.11,2.59,3.66
			c1.62,0.41,3.22-0.63,4.87-0.85c2.38-0.31,4.59,1.08,6.78,2.06s5.08,1.43,6.72-0.32c1.19-1.37,1.14-3.41-0.12-4.72
			c-1.3-1.25-3.31-1.27-5.08-1.62C545.42,430.85,538.04,423.37,534.78,427.1z"/>
		<path class="st4" d="M470.92,434.24c-0.39,0.43-0.5,1.04-0.29,1.58c0.5,0.63,1.31,0.94,2.1,0.8h4.81c0.11,0.02,0.21,0.02,0.32,0
			c0.13-0.08,0.22-0.2,0.27-0.34c0.16-0.49,0.22-1,0.17-1.51c-0.06-1.76,0.67-5.35-2.06-4.53c-0.92,0.38-1.75,0.95-2.44,1.67
			C472.78,432.61,471.81,433.39,470.92,434.24z"/>
		<path class="st4" d="M465.34,418.21c0,0.1,0.03,0.2,0.08,0.28c0.1,0.09,0.23,0.14,0.36,0.14c0.59,0.04,1.18,0.04,1.77,0l4.71-0.11
			c0.71,0.15,1.4-0.31,1.55-1.01c0.03-0.16,0.04-0.32,0.01-0.49c0.09-0.68,0.09-1.38,0-2.06C473,409.72,464.94,413.85,465.34,418.21
			z"/>
		<path class="st4" d="M419.27,163.02c0.03-0.18,0.03-0.36,0-0.54c-0.31-0.51-0.88-0.8-1.47-0.76c-0.49-0.09-0.99-0.05-1.46,0.13
			c-0.46,0.23-0.8,0.65-0.93,1.15c-0.13,0.49-0.19,0.99-0.17,1.5c-0.05,0.7,0.05,1.4,0.28,2.06c0.45,1.05,2,2.09,3,1.17
			S419.22,164.25,419.27,163.02z"/>
		<path class="st4" d="M425.4,158.7c-0.18-0.03-0.37,0-0.53,0.08c-0.14,0.1-0.24,0.24-0.28,0.41c-0.21,0.73,0.04,1.52,0.63,2
			c0.35,0.26,0.72,0.48,1.12,0.66c0.57,0.26,1.08,0.62,1.64,0.89c0.55,0.3,1.18,0.42,1.8,0.34c0.63-0.1,1.13-0.59,1.24-1.22
			c-0.07-0.78-0.56-1.47-1.29-1.77C428.42,159.29,426.93,158.82,425.4,158.7z"/>
	</g>
</g>
<path class="st0" d="M411.62,230.58l0.92-3.71c0.13-0.55,0.69-0.88,1.23-0.75l1.81,0.45c0.55,0.13,0.88,0.69,0.75,1.23l-0.92,3.71
	c-0.13,0.55-0.69,0.88-1.23,0.75l-1.81-0.45C411.82,231.68,411.48,231.13,411.62,230.58z"/>
<path class="st0" d="M406.59,220.72l2.14-8.68c0.13-0.55,0.69-0.88,1.23-0.75l8.28,2.04c0.55,0.13,0.88,0.69,0.75,1.23l-2.14,8.68
	c-0.13,0.55-0.69,0.88-1.23,0.75l-8.28-2.04C406.79,221.81,406.45,221.26,406.59,220.72z"/>
<path class="st0" d="M409.87,207.33l2.14-8.68c0.13-0.55,0.69-0.88,1.23-0.75l8.28,2.04c0.55,0.13,0.88,0.69,0.75,1.23l-2.14,8.68
	c-0.13,0.55-0.69,0.88-1.23,0.75l-8.28-2.04C410.07,208.43,409.74,207.87,409.87,207.33z"/>
<path class="st0" d="M422.63,429.89l0.98-16.5c0.03-0.56,0.52-0.99,1.08-0.96l6.12,0.36c0.56,0.03,0.99,0.52,0.96,1.08l-0.98,16.5
	c-0.03,0.56-0.52,0.99-1.08,0.96l-6.12-0.36C423.02,430.93,422.59,430.45,422.63,429.89z"/>
<path class="st0" d="M416.95,382.67l0.38-6.45c0.03-0.56,0.52-0.99,1.08-0.96l3.56,0.21c0.56,0.03,0.99,0.52,0.96,1.08l-0.38,6.45
	c-0.03,0.56-0.52,0.99-1.08,0.96l-3.56-0.21C417.34,383.71,416.91,383.23,416.95,382.67z"/>
<path class="st0" d="M501.95,368.28l1.76-6.84c0.14-0.55,0.7-0.88,1.24-0.73l3.52,0.91c0.55,0.14,0.88,0.7,0.73,1.24l-1.76,6.84
	c-0.14,0.55-0.7,0.88-1.24,0.73l-3.52-0.91C502.14,369.39,501.81,368.83,501.95,368.28z"/>
<path class="st0" d="M506.78,359.87l1.79-6.82c0.14-0.54,0.7-0.87,1.25-0.73l3.51,0.92c0.54,0.14,0.87,0.7,0.73,1.25l-1.79,6.82
	c-0.14,0.54-0.7,0.87-1.25,0.73l-3.51-0.92C506.96,360.97,506.64,360.41,506.78,359.87z"/>
<path class="st0" d="M457.37,224.38l-1.44-12.82c-0.06-0.56,0.34-1.06,0.9-1.13l7.81-0.88c0.56-0.06,1.06,0.34,1.13,0.9l1.44,12.82
	c0.06,0.56-0.34,1.06-0.9,1.13l-7.81,0.88C457.93,225.34,457.43,224.94,457.37,224.38z"/>
<path class="st0" d="M480.33,251.19l0.7-8.12c0.05-0.56,0.54-0.98,1.1-0.93l4.45,0.38c0.56,0.05,0.98,0.54,0.93,1.1l-0.7,8.12
	c-0.05,0.56-0.54,0.98-1.1,0.93l-4.45-0.38C480.7,252.25,480.28,251.75,480.33,251.19z"/>
<path class="st0" d="M545.17,200.49v-5.35c0-0.56,0.46-1.02,1.02-1.02h7.47c0.56,0,1.02,0.46,1.02,1.02v5.35
	c0,0.56-0.46,1.02-1.02,1.02h-7.47C545.63,201.51,545.17,201.05,545.17,200.49z"/>
<path class="st0" d="M532.63,200.36v-5.35c0-0.56,0.46-1.02,1.02-1.02h7.47c0.56,0,1.02,0.46,1.02,1.02v5.35
	c0,0.56-0.46,1.02-1.02,1.02h-7.47C533.09,201.38,532.63,200.92,532.63,200.36z"/>
<path class="st1" d="M717.39,449.77l1.34-6.91c0.11-0.55,0.64-0.91,1.19-0.81l13.71,2.66c0.55,0.11,0.91,0.64,0.81,1.19l-1.34,6.91
	c-0.11,0.55-0.64,0.91-1.19,0.81l-13.71-2.66C717.65,450.86,717.29,450.32,717.39,449.77z"/>
<path class="st1" d="M687.48,447.09l0.61-3.2c0.11-0.55,0.64-0.92,1.19-0.81l9.29,1.78c0.55,0.11,0.92,0.64,0.81,1.19l-0.61,3.2
	c-0.11,0.55-0.64,0.92-1.19,0.81l-9.29-1.78C687.74,448.17,687.37,447.64,687.48,447.09z"/>
<path class="st1" d="M541.75,354.92l0.75-3.94c0.11-0.55,0.64-0.92,1.19-0.81l8.86,1.69c0.55,0.11,0.92,0.64,0.81,1.19l-0.75,3.94
	c-0.11,0.55-0.64,0.92-1.19,0.81l-8.86-1.69C542.01,356.01,541.65,355.47,541.75,354.92z"/>
<path class="st0" d="M554.52,363.61l0.75-3.94c0.11-0.55,0.64-0.92,1.19-0.81l8.86,1.69c0.55,0.11,0.92,0.64,0.81,1.19l-0.75,3.94
	c-0.11,0.55-0.64,0.92-1.19,0.81l-8.86-1.69C554.77,364.69,554.41,364.16,554.52,363.61z"/>
<path class="st0" d="M568.41,372.79l0.75-3.94c0.11-0.55,0.64-0.92,1.19-0.81l8.86,1.69c0.55,0.11,0.92,0.64,0.81,1.19l-0.75,3.94
	c-0.11,0.55-0.64,0.92-1.19,0.81l-8.86-1.69C568.67,373.88,568.31,373.34,568.41,372.79z"/>
<path class="st0" d="M703.96,322.01l-0.6-3.96c-0.08-0.56,0.3-1.08,0.86-1.16l8.92-1.35c0.56-0.08,1.08,0.3,1.16,0.86l0.6,3.96
	c0.08,0.56-0.3,1.08-0.86,1.16l-8.92,1.35C704.56,322.95,704.04,322.56,703.96,322.01z"/>
<path class="st0" d="M689.34,323.95l-0.6-3.96c-0.08-0.56,0.3-1.08,0.86-1.16l8.92-1.35c0.56-0.08,1.08,0.3,1.16,0.86l0.6,3.96
	c0.08,0.56-0.3,1.08-0.86,1.16l-8.92,1.35C689.95,324.89,689.43,324.5,689.34,323.95z"/>
<path class="st0" d="M665.79,330.9l-0.37-2.43c-0.08-0.56,0.3-1.08,0.86-1.16l6.19-0.94c0.56-0.08,1.08,0.3,1.16,0.86l0.37,2.43
	c0.08,0.56-0.3,1.08-0.86,1.16l-6.19,0.94C666.39,331.84,665.87,331.46,665.79,330.9z"/>
<path class="st0" d="M448.18,169.63l0.24-4c0.03-0.56,0.52-0.99,1.08-0.96l9,0.53c0.56,0.03,0.99,0.52,0.96,1.08l-0.24,4
	c-0.03,0.56-0.52,0.99-1.08,0.96l-9-0.53C448.57,170.68,448.15,170.2,448.18,169.63z"/>
<path class="st0" d="M463.57,170.64l0.24-4c0.03-0.56,0.52-0.99,1.08-0.96l9,0.53c0.56,0.03,0.99,0.52,0.96,1.08l-0.24,4
	c-0.03,0.56-0.52,0.99-1.08,0.96l-9-0.53C463.96,171.69,463.53,171.2,463.57,170.64z"/>
<path class="st0" d="M509.37,158.91l1.65-3.65c0.23-0.51,0.84-0.74,1.35-0.51l8.22,3.71c0.51,0.23,0.74,0.84,0.51,1.35l-1.65,3.65
	c-0.23,0.51-0.84,0.74-1.35,0.51l-8.22-3.71C509.37,160.02,509.14,159.42,509.37,158.91z"/>
<path class="st3" d="M425.83,174.73c-1.51-2.28-3.9-3.82-6.59-4.26c-2.12-0.07-4.24,0.32-6.19,1.15c-0.8,0.23-1.56,0.58-2.24,1.05
	c-1.75,1.35-2,4-1.26,6.09s2.2,3.82,3.42,5.67c1.44,2.17,2.56,4.55,4,6.73c1.34,2.26,3.29,4.09,5.63,5.28
	c0.82,0.38,1.71,0.59,2.62,0.61c3.12,0,5.57-3,6.06-6.08c0.45-3.1-0.14-6.26-1.66-9C428.25,179.63,427.45,176.96,425.83,174.73z"/>
<path class="st2" d="M186.61,359.16c-0.43-0.05-0.87,0.01-1.28,0.17c-0.34,0.2-0.6,0.49-0.76,0.85c-0.38,0.89-0.58,1.84-0.59,2.8
	l-0.26,3.36c-0.05,0.33-0.03,0.68,0.08,1c0.29,0.49,0.76,0.85,1.31,1l4.93,2c0.44,0.19,0.89,0.35,1.36,0.46
	c0.66,0.11,1.33,0.15,2,0.13c1.17,0.09,2.34,0.06,3.5-0.11c3.16-0.66,5.18-3.75,4.52-6.91c-0.26-1.26-0.93-2.39-1.9-3.23
	c-1.85-1.36-4.06-2.14-6.35-2.26C191.03,358.19,188.82,359.2,186.61,359.16z"/>
</svg>
