<?xml version="1.0" encoding="UTF-8"?>
<svg width="525px" height="86px" viewBox="0 0 525 86" version="1.1" xmlns="http://www.w3.org/2000/svg" xmlns:xlink="http://www.w3.org/1999/xlink">
    <!-- Generator: Sketch 53.2 (72643) - https://sketchapp.com -->
    <title>Group 2</title>
    <desc>Created with Sketch.</desc>
    <g id="Page-1" stroke="none" stroke-width="1" fill="none" fill-rule="evenodd">
        <g id="Group-2">
            <text id="ANALYZE.GOLF" font-family="SFProText-Semibold, SF Pro Text" font-size="54" font-weight="500" fill="#1C4061">
                <tspan x="108" y="62">ANALYZE.GOLF</tspan>
            </text>
            <g id="Group">
                <circle id="Oval" fill="#0788DE" cx="43" cy="43" r="43"></circle>
                <g id="golf" transform="translate(21.000000, 19.000000)" fill="#FFFFFF" fill-rule="nonzero">
                    <path d="M8.90529177,4.9399016 L13.6119873,7.81169775 C12.8843573,10.777966 15.0328975,13.6973823 18.0080551,13.6973823 C19.2206489,13.6973823 20.3220666,13.2027482 21.1361259,12.3970476 L23.7799717,14 L26.6,12.3071841 L22.4754084,9.8059794 C22.965543,6.92035798 20.8362093,4.26323602 18.0080551,4.26323602 C16.9188261,4.26323602 15.9193504,4.66262998 15.1370558,5.32815855 L6.73606754,0.202474773 C6.23669906,-0.102063097 5.63169499,-0.0521389013 5.19068462,0.278897296 L1.11226253,3.81276574 C0.30595971,4.51055305 0.479926119,5.83661788 1.43434043,6.28824028 C3.7705132,7.39348621 6.49340108,7.03518377 8.53667505,5.25980078 L8.90529177,4.9399016 Z" id="Path"></path>
                    <path d="M42.9280612,21.3856127 L37.3373668,18 C36.9598318,18.8503416 36.3727119,19.6123884 35.6,20.1941818 L41.5706992,23.809874 C42.2153315,24.1989576 43.0420273,23.971809 43.4167397,23.3024535 C43.7918049,22.6330979 43.5726934,21.7746962 42.9280612,21.3856127 L42.9280612,21.3856127 Z" id="Path"></path>
                    <path d="M34.2308288,13.4246548 C33.468774,12.0654967 31.7650603,11.5953618 30.4450789,12.3800341 L25.0915806,15.5629148 L17.4753601,15.5629148 C15.7528926,15.5629148 14.7037597,16.5681718 14.7037597,18.4164039 L14.7091695,36.4750087 L9.23052538,43.312019 C8.26037516,44.5230065 8.42879904,46.3307609 9.60452018,47.3297049 C10.7802413,48.3282775 12.5358887,48.1552262 13.5060389,46.9446102 L20.2465997,38.5323134 L20.2465997,45.1465109 C20.2465997,46.7158557 21.4937296,48 23.0182,48 C24.5423096,48 25.7894396,46.7158557 25.7894396,45.1465109 L25.7894396,24.1241247 L22.0942131,24.1241247 C21.3289123,24.1241247 20.7085932,23.4850233 20.7085932,22.6970088 C20.7085932,21.9089942 21.3289123,21.2702643 22.0942131,21.2702643 L25.7894396,21.2695216 C26.2748755,21.2784341 26.7675242,21.1570011 27.2161736,20.8899971 L33.2166793,17.3231358 C34.5366606,16.5380921 34.9928837,14.7841841 34.2308288,13.4246548 Z" id="Path"></path>
                </g>
            </g>
        </g>
    </g>
</svg>